<svg width="43" height="52" viewBox="0 0 43 52" fill="none" xmlns="http://www.w3.org/2000/svg">
<path d="M21.5001 52C14.1212 43.225 -0.315489 35.1 0.00525679 21.775C0.00525679 9.92855 10.9131 0 21.5001 0C21.5001 20.3072 21.5001 31.6928 21.5001 52Z" fill="#8CC53E"/>
<path d="M21.5001 52V0C21.5001 20.3072 21.5001 31.6928 21.5001 52Z" fill="#8CC53E"/>
<path d="M21.5001 52C28.8789 43.225 43.3155 35.1 42.9947 21.775C42.9947 9.92855 32.087 0 21.5001 0C21.5001 20.3072 21.5001 31.6928 21.5001 52Z" fill="#8CC53E"/>
<path d="M21.5001 52V0C21.5001 20.3072 21.5001 31.6928 21.5001 52Z" fill="#8CC53E"/>
<ellipse cx="21" cy="22.5" rx="14" ry="15.5" fill="white"/>
<path d="M21.2626 43.8251C16.033 37.6151 5.80143 31.8651 6.02875 22.4351C6.02875 14.0514 13.7594 7.02502 21.2626 7.02502C21.2626 7.02502 37.4963 15.9351 36.4963 22.4351C35.4963 28.9351 21.2626 43.8251 21.2626 43.8251Z" fill="white"/>
<path d="M21.2626 43.8251C26.4922 37.6151 36.7236 31.8651 36.4963 22.4351C36.4963 14.0514 28.7658 7.02502 21.2626 7.02502C21.2626 7.02502 37.4963 15.9351 36.4963 22.4351C35.4963 28.9351 21.2626 43.8251 21.2626 43.8251Z" fill="white"/>
<path d="M18 15.5C18 16.6046 17.1046 17.5 16 17.5C14.8954 17.5 14 16.6046 14 15.5C14 14.3954 14.8954 13.5 16 13.5C17.1046 13.5 18 14.3954 18 15.5Z" fill="#8CC53E" stroke="#8CC53E"/>
<path d="M29.5 15.5C29.5 16.6046 28.6046 17.5 27.5 17.5C26.3954 17.5 25.5 16.6046 25.5 15.5C25.5 14.3954 26.3954 13.5 27.5 13.5C28.6046 13.5 29.5 14.3954 29.5 15.5Z" fill="#8CC53E" stroke="#8CC53E"/>
<path d="M18.7735 21.1616C18.5093 22.8361 19.1925 25.1516 21.6711 25.0839C24.1496 25.0163 24.9418 22.6604 24.66 21.0008" stroke="#8CC53E" stroke-width="1.5" stroke-linecap="round"/>
<ellipse cx="12.75" cy="21" rx="2.75" ry="1" fill="#FFA217"/>
<ellipse cx="31.25" cy="21.5" rx="2.75" ry="1" fill="#FFA217"/>
</svg>
