<svg viewBox="0 0 84 84" fill="none" xmlns="http://www.w3.org/2000/svg">
<g clip-path="url(#clip0_291_553)">
<path d="M42.0333 50.1857C42.0468 50.9586 42.0622 51.834 42.1718 52.6755L42.25 53.4029C42.312 53.9809 42.3731 54.5551 42.4366 55.1325C42.5204 55.708 42.6339 56.2848 42.7435 56.843C42.7903 57.0787 42.8364 57.3138 42.88 57.5447C43.0774 58.7591 43.4324 59.9454 43.776 61.0925C43.888 61.4676 44.0047 61.8559 44.1116 62.2341L44.1156 62.2462C45.3333 65.6635 46.6597 68.405 48.1709 70.6275C48.3094 70.8333 48.4445 71.0383 48.5779 71.2414L48.581 71.2467C49.1175 72.1771 49.7731 73.0392 50.5299 73.8082C52.9313 76.2524 56.1412 77.5984 59.5681 77.5984C62.202 77.5984 64.7277 76.7973 66.872 75.2823C70.2353 72.9085 72.2431 69.0364 72.2431 64.9245C72.2431 57.9352 66.5574 52.2494 59.568 52.2494C59.532 52.2494 59.4961 52.2494 59.4604 52.2494C59.4251 52.1731 59.3891 52.0968 59.3532 52.02C59.2295 51.7552 59.1014 51.4816 58.9944 51.2145C58.8277 50.7318 58.6579 50.2449 58.4829 49.7468C58.3073 49.3124 58.1951 48.8553 58.076 48.371L58.0433 48.2402C57.994 48.0305 57.9369 47.8173 57.8817 47.6115C57.7991 47.2995 57.7126 46.9764 57.6484 46.6547C57.5964 46.2926 57.5305 45.9222 57.467 45.5639C57.3356 44.8262 57.1997 44.0642 57.1702 43.2952L57.1695 43.2875L57.1691 43.2799C56.8839 40.944 57.0473 38.4581 57.2383 36.1125L57.2165 36.1086L57.3587 35.3063L57.7305 33.187C57.7695 32.9903 57.8099 32.8262 57.8496 32.6677C57.8765 32.5621 57.9021 32.4569 57.9278 32.3435L58.3091 30.6849C58.4053 30.3325 58.529 29.9627 58.6481 29.605C58.7206 29.3889 58.7948 29.166 58.8653 28.9404C59.0902 28.1362 59.4184 27.367 59.7356 26.623C59.8869 26.2686 60.0433 25.9028 60.1835 25.5431C60.3368 25.2042 60.513 24.8697 60.6828 24.546C60.7873 24.348 60.8949 24.1434 60.9968 23.9391L61.014 23.9052C61.2723 23.3931 61.5402 22.863 61.8607 22.3933C62.1754 21.889 62.4881 21.3891 62.7944 20.9C62.9982 20.6021 63.22 20.3117 63.4339 20.0303C63.564 19.8607 63.6935 19.6901 63.8241 19.5125C64.2587 18.8788 64.7694 18.3231 65.2636 17.7861C65.5046 17.5239 65.7533 17.2536 65.9904 16.9773C67.861 15.1655 69.3345 13.9933 70.7693 13.1756C70.9232 13.0859 71.0763 12.9911 71.2238 12.9C71.4833 12.7399 71.7281 12.588 71.9729 12.4642L73.206 11.8938C73.7551 11.6023 74.3185 11.4223 74.864 11.2479C75.0837 11.1773 75.3106 11.105 75.5357 11.0248C76.0221 10.8325 76.5073 10.7449 76.9763 10.6602C77.2167 10.6166 77.4429 10.5756 77.6736 10.5211C78.2503 10.3738 78.7874 10.341 79.3072 10.309C79.3816 10.3045 79.4545 10.3001 79.5365 10.2942C79.9229 10.2499 80.3081 10.2282 80.7138 10.2282C81.1809 10.2282 81.5797 10.2571 81.9308 10.2821C82.0276 10.2891 82.1194 10.2955 82.2058 10.3008C82.8396 10.3385 83.1767 10.3603 83.1767 10.3603L83.339 10.3705L84 7.72498L83.8205 7.67297C83.8205 7.67297 83.4558 7.566 82.7733 7.36551C82.6919 7.34173 82.6061 7.31613 82.5164 7.28906C81.8339 7.08398 80.8989 6.80262 79.6998 6.67006L79.4921 6.63741C78.9116 6.5452 78.254 6.4407 77.5478 6.4407C77.5061 6.4407 77.4644 6.44135 77.4254 6.44185H77.4049C77.1665 6.44185 76.9215 6.43233 76.6621 6.42265C76.3898 6.41248 76.1084 6.40149 75.8207 6.40149C75.4021 6.40149 75.0515 6.42396 74.7241 6.47203C74.4914 6.49763 74.2557 6.51879 74.0065 6.54127C73.245 6.60984 72.4574 6.68105 71.6653 6.88744L70.0214 7.2451C69.6478 7.33992 69.2895 7.46035 68.9107 7.58864C68.7241 7.65131 68.5358 7.71497 68.3448 7.77518C66.2627 8.42306 64.0388 9.49652 61.3459 11.1545L61.3338 11.1627C61.023 11.3877 60.7095 11.6049 60.377 11.8351C59.5496 12.4075 58.6934 12.9996 57.9237 13.6993C57.7449 13.8525 57.5641 14.005 57.3815 14.1589C57.0071 14.4742 56.6201 14.7997 56.2446 15.1477L54.6673 16.7307C54.1045 17.2659 53.6059 17.8637 53.1228 18.4425C52.9677 18.6297 52.8088 18.8168 52.6493 19.0046C52.3103 19.4039 51.9604 19.8161 51.6316 20.2498C51.3964 20.587 51.1478 20.9305 50.9081 21.2631C50.2358 22.1943 49.5405 23.1575 48.9681 24.1842C48.8373 24.4078 48.7041 24.629 48.5707 24.85C48.2933 25.3102 48.0067 25.785 47.7363 26.2932C47.3619 27.0635 46.9859 27.8344 46.6077 28.6119C46.5552 28.7235 46.5001 28.8382 46.4443 28.9542C46.3103 29.2336 46.1719 29.5233 46.0635 29.7751L45.6496 30.769L45.2356 31.7649L44.9433 32.471L44.9126 32.4416L44.8235 32.755C44.8165 32.7799 44.7966 32.8512 44.7536 33.0093C43.8288 35.8471 42.8305 39.2168 42.4312 42.6972C42.2164 43.9334 42.1478 45.1998 42.0819 46.4239C42.06 46.8365 42.0369 47.2634 42.008 47.6883C41.99 48.2688 42.0043 48.8559 42.0176 49.4231C42.0244 49.6769 42.0302 49.9312 42.0333 50.1857Z" fill="#4B4B4B"/>
<path d="M0.0180013 49.4232C0.0243998 49.677 0.030146 49.9314 0.0334272 50.1859C0.0468804 50.9588 0.0623013 51.8342 0.171895 52.6757L0.249986 53.4032C0.312166 53.9812 0.373037 54.5554 0.436529 55.1327C0.520529 55.7082 0.633896 56.2851 0.74349 56.8432C0.790412 57.079 0.83635 57.3141 0.87999 57.5449C1.07736 58.7593 1.43239 59.9456 1.77594 61.0928C1.88815 61.4678 2.00464 61.8562 2.11177 62.2343L2.11554 62.2465C3.33321 65.6637 4.65983 68.4052 6.17101 70.6278C6.30931 70.8335 6.44466 71.0386 6.57788 71.2417L6.58116 71.2469C7.11748 72.1773 7.77324 73.0395 8.5299 73.8084C10.9313 76.2526 14.1413 77.5986 17.5681 77.5986C20.2021 77.5986 22.7279 76.7975 24.8722 75.2825C28.2354 72.9087 30.2432 69.0367 30.2432 64.9248C30.2432 57.9354 24.5575 52.2496 17.5681 52.2496C17.5323 52.2496 17.4964 52.2496 17.4605 52.2496C17.4254 52.1734 17.3893 52.0971 17.3535 52.0203C17.2298 51.7555 17.1017 51.4818 16.9945 51.2147C16.828 50.7321 16.6582 50.2451 16.4832 49.747C16.3076 49.3126 16.1954 48.8555 16.0761 48.3712L16.0435 48.2404C15.9941 48.0308 15.9372 47.8175 15.882 47.6118C15.7993 47.2997 15.7129 46.9767 15.6487 46.6549C15.5969 46.2929 15.5309 45.9224 15.4674 45.5641C15.336 44.8265 15.2 44.0644 15.1707 43.2954L15.17 43.2877L15.1693 43.2802C14.8842 40.9443 15.0476 38.4584 15.2386 36.1128L15.2168 36.1088L15.359 35.3066L15.7308 33.1872C15.7698 32.9905 15.8103 32.8264 15.85 32.668C15.8769 32.5623 15.9025 32.4571 15.9281 32.3438L16.3096 30.6851C16.4057 30.3327 16.5293 29.9629 16.6485 29.6052C16.7209 29.3892 16.7952 29.1662 16.8657 28.9406C17.0907 28.1364 17.4188 27.3673 17.7361 26.6232C17.8874 26.2689 18.0436 25.903 18.184 25.5434C18.3372 25.2044 18.5134 24.8699 18.6831 24.5462C18.7876 24.3482 18.8954 24.1436 18.9971 23.9393L19.0145 23.9054C19.2727 23.3933 19.5406 22.8633 19.861 22.3935C20.1757 21.8892 20.4884 21.3893 20.7947 20.9003C20.9985 20.6023 21.2203 20.3119 21.4342 20.0306C21.5645 19.8609 21.6938 19.6903 21.8245 19.5128C22.2591 18.879 22.7699 18.3233 23.264 17.7863C23.505 17.5242 23.7536 17.2538 23.9908 16.9775C25.8615 15.1658 27.3347 13.9935 28.7698 13.1759C28.9237 13.0861 29.0768 12.9913 29.2242 12.9002C29.4838 12.7401 29.7286 12.5882 29.9734 12.4645L31.2063 11.894C31.7556 11.6025 32.319 11.4225 32.8643 11.2481C33.0841 11.1776 33.3109 11.1052 33.536 11.025C34.0224 10.8327 34.5075 10.7451 34.9768 10.6605C35.2171 10.6168 35.4434 10.5758 35.674 10.5213C36.2509 10.374 36.788 10.3412 37.3078 10.3092C37.3821 10.3048 37.4551 10.3003 37.5371 10.2944C37.9235 10.2501 38.3087 10.2285 38.7143 10.2285C39.1815 10.2285 39.5802 10.2574 39.9313 10.2823C40.0281 10.2893 40.1196 10.2957 40.2063 10.301C40.84 10.3387 41.1772 10.3605 41.1772 10.3605L41.3393 10.3707L42.0001 7.72521L41.8206 7.6732C41.8206 7.6732 41.4561 7.56624 40.7736 7.36575C40.6922 7.34196 40.6062 7.31637 40.5167 7.2893C39.8342 7.08422 38.8992 6.80286 37.7 6.67029L37.4923 6.63764C36.9117 6.54544 36.2542 6.44093 35.5479 6.44093C35.5062 6.44093 35.4647 6.44159 35.4255 6.44208H35.405C35.1664 6.44208 34.9216 6.43256 34.6621 6.42288C34.3898 6.41271 34.1085 6.40172 33.8206 6.40172C33.4023 6.40172 33.0517 6.4242 32.7242 6.47227C32.4916 6.49786 32.2556 6.51903 32.0064 6.5415C31.245 6.61008 30.4573 6.68128 29.6652 6.88767L28.0215 7.24533C27.6478 7.34016 27.2896 7.46058 26.9108 7.58888C26.7243 7.65155 26.5358 7.71521 26.3448 7.77542C24.2627 8.4233 22.0388 9.49676 19.3459 11.1548L19.3337 11.163C19.0228 11.3879 18.7095 11.6051 18.3768 11.8353C17.5496 12.4077 16.6932 12.9998 15.9235 13.6996C15.7447 13.8528 15.5641 14.0052 15.3813 14.1591C15.0071 14.4744 14.6199 14.7999 14.2444 15.1479L12.6672 16.7309C12.1045 17.2661 11.6059 17.8639 11.1227 18.4428C10.9675 18.63 10.8087 18.817 10.6493 19.0048C10.3103 19.4042 9.96036 19.8163 9.63157 20.2501C9.39631 20.5872 9.14759 20.9308 8.90806 21.2633C8.23573 22.1945 7.54043 23.1578 6.96818 24.1845C6.83742 24.4081 6.70404 24.6292 6.57082 24.8502C6.29339 25.3104 6.00694 25.7852 5.7364 26.2935C5.36201 27.0638 4.98598 27.8347 4.60782 28.6122C4.55532 28.7237 4.50019 28.8384 4.44441 28.9544C4.31053 29.2338 4.17206 29.5235 4.06378 29.7754L3.64986 30.7693L3.23576 31.7651L2.94356 32.4713L2.91272 32.4419L2.8238 32.7552C2.81675 32.7802 2.7969 32.8514 2.75391 33.0095C1.82926 35.8473 0.83077 39.217 0.431442 42.6974C0.216684 43.9336 0.148271 45.2 0.0821533 46.4241C0.060333 46.8367 0.0371994 47.2636 0.00848842 47.6885C-0.00955846 48.2688 0.00454819 48.856 0.0180013 49.4232Z" fill="#4B4B4B"/>
</g>
<defs>
<clipPath id="clip0_291_553">
<rect width="84" height="84" fill="white" transform="translate(84 84) rotate(180)"/>
</clipPath>
</defs>
</svg>
