<svg viewBox="0 0 131 76" fill="none" xmlns="http://www.w3.org/2000/svg">
<path d="M28 13C19.799 13 15.201 13 7 13C7 12.2267 13.6295 7.56 14.374 7.24C15.1186 6.92 19.6649 6.92 20.4656 7.24C21.2663 7.56 28 12.44 28 13Z" fill="#449B00"/>
<path d="M7 13C15.201 13 19.799 13 28 13C28 13.6133 21.3704 18.44 20.6259 18.76C19.8814 19.08 15.335 19.08 14.5343 18.76C13.7336 18.44 7 13.72 7 13Z" fill="#449B00"/>
<path d="M28 30C19.799 30 15.201 30 7 30C7 29.2267 13.6295 24.56 14.374 24.24C15.1186 23.92 19.6649 23.92 20.4656 24.24C21.2663 24.56 28 29.44 28 30Z" fill="#449B00"/>
<path d="M7 30C15.201 30 19.799 30 28 30C28 30.6133 21.3704 35.44 20.6259 35.76C19.8814 36.08 15.335 36.08 14.5343 35.76C13.7336 35.44 7 30.72 7 30Z" fill="#449B00"/>
<path d="M28 42C19.799 42 15.201 42 7 42C7 41.2267 13.6295 36.56 14.374 36.24C15.1186 35.92 19.6649 35.92 20.4656 36.24C21.2663 36.56 28 41.44 28 42Z" fill="#449B00"/>
<path d="M7 42C15.201 42 19.799 42 28 42C28 42.6133 21.3704 47.44 20.6259 47.76C19.8814 48.08 15.335 48.08 14.5343 47.76C13.7336 47.44 7 42.72 7 42Z" fill="#449B00"/>
<path d="M28 54C19.799 54 15.201 54 7 54C7 53.2267 13.6295 48.56 14.374 48.24C15.1186 47.92 19.6649 47.92 20.4656 48.24C21.2663 48.56 28 53.44 28 54Z" fill="#449B00"/>
<path d="M7 54C15.201 54 19.799 54 28 54C28 54.6133 21.3704 59.44 20.6259 59.76C19.8814 60.08 15.335 60.08 14.5343 59.76C13.7336 59.44 7 54.72 7 54Z" fill="#449B00"/>
<path d="M28 66C19.799 66 15.201 66 7 66C7 65.2267 13.6295 60.56 14.374 60.24C15.1186 59.92 19.6649 59.92 20.4656 60.24C21.2663 60.56 28 65.44 28 66Z" fill="#449B00"/>
<path d="M7 66C15.201 66 19.799 66 28 66C28 66.6133 21.3704 71.44 20.6259 71.76C19.8814 72.08 15.335 72.08 14.5343 71.76C13.7336 71.44 7 66.72 7 66Z" fill="#449B00"/>
<path d="M17.5 4L17.5 72" stroke="#449B00" stroke-width="3"/>
<path d="M52 13C43.799 13 39.201 13 31 13C31 12.2267 37.6295 7.56 38.374 7.24C39.1186 6.92 43.6649 6.92 44.4656 7.24C45.2663 7.56 52 12.44 52 13Z" fill="#449B00"/>
<path d="M31 13C39.201 13 43.799 13 52 13C52 13.6133 45.3704 18.44 44.6259 18.76C43.8814 19.08 39.335 19.08 38.5343 18.76C37.7336 18.44 31 13.72 31 13Z" fill="#449B00"/>
<path d="M52 30C43.799 30 39.201 30 31 30C31 29.2267 37.6295 24.56 38.374 24.24C39.1186 23.92 43.6649 23.92 44.4656 24.24C45.2663 24.56 52 29.44 52 30Z" fill="#449B00"/>
<path d="M31 30C39.201 30 43.799 30 52 30C52 30.6133 45.3704 35.44 44.6259 35.76C43.8814 36.08 39.335 36.08 38.5343 35.76C37.7336 35.44 31 30.72 31 30Z" fill="#449B00"/>
<path d="M52 42C43.799 42 39.201 42 31 42C31 41.2267 37.6295 36.56 38.374 36.24C39.1186 35.92 43.6649 35.92 44.4656 36.24C45.2663 36.56 52 41.44 52 42Z" fill="#449B00"/>
<path d="M31 42C39.201 42 43.799 42 52 42C52 42.6133 45.3704 47.44 44.6259 47.76C43.8814 48.08 39.335 48.08 38.5343 47.76C37.7336 47.44 31 42.72 31 42Z" fill="#449B00"/>
<path d="M52 54C43.799 54 39.201 54 31 54C31 53.2267 37.6295 48.56 38.374 48.24C39.1186 47.92 43.6649 47.92 44.4656 48.24C45.2663 48.56 52 53.44 52 54Z" fill="#449B00"/>
<path d="M31 54C39.201 54 43.799 54 52 54C52 54.6133 45.3704 59.44 44.6259 59.76C43.8814 60.08 39.335 60.08 38.5343 59.76C37.7336 59.44 31 54.72 31 54Z" fill="#449B00"/>
<path d="M52 66C43.799 66 39.201 66 31 66C31 65.2267 37.6295 60.56 38.374 60.24C39.1186 59.92 43.6649 59.92 44.4656 60.24C45.2663 60.56 52 65.44 52 66Z" fill="#449B00"/>
<path d="M31 66C39.201 66 43.799 66 52 66C52 66.6133 45.3704 71.44 44.6259 71.76C43.8814 72.08 39.335 72.08 38.5343 71.76C37.7336 71.44 31 66.72 31 66Z" fill="#449B00"/>
<path d="M41.5 4L41.5 72" stroke="#449B00" stroke-width="3"/>
<path d="M76 13C67.799 13 63.201 13 55 13C55 12.2267 61.6295 7.56 62.374 7.24C63.1186 6.92 67.6649 6.92 68.4656 7.24C69.2663 7.56 76 12.44 76 13Z" fill="#449B00"/>
<path d="M55 13C63.201 13 67.799 13 76 13C76 13.6133 69.3704 18.44 68.6259 18.76C67.8814 19.08 63.335 19.08 62.5343 18.76C61.7336 18.44 55 13.72 55 13Z" fill="#449B00"/>
<path d="M76 30C67.799 30 63.201 30 55 30C55 29.2267 61.6295 24.56 62.374 24.24C63.1186 23.92 67.6649 23.92 68.4656 24.24C69.2663 24.56 76 29.44 76 30Z" fill="#449B00"/>
<path d="M55 30C63.201 30 67.799 30 76 30C76 30.6133 69.3704 35.44 68.6259 35.76C67.8814 36.08 63.335 36.08 62.5343 35.76C61.7336 35.44 55 30.72 55 30Z" fill="#449B00"/>
<path d="M76 42C67.799 42 63.201 42 55 42C55 41.2267 61.6295 36.56 62.374 36.24C63.1186 35.92 67.6649 35.92 68.4656 36.24C69.2663 36.56 76 41.44 76 42Z" fill="#449B00"/>
<path d="M55 42C63.201 42 67.799 42 76 42C76 42.6133 69.3704 47.44 68.6259 47.76C67.8814 48.08 63.335 48.08 62.5343 47.76C61.7336 47.44 55 42.72 55 42Z" fill="#449B00"/>
<path d="M76 54C67.799 54 63.201 54 55 54C55 53.2267 61.6295 48.56 62.374 48.24C63.1186 47.92 67.6649 47.92 68.4656 48.24C69.2663 48.56 76 53.44 76 54Z" fill="#449B00"/>
<path d="M55 54C63.201 54 67.799 54 76 54C76 54.6133 69.3704 59.44 68.6259 59.76C67.8814 60.08 63.335 60.08 62.5343 59.76C61.7336 59.44 55 54.72 55 54Z" fill="#449B00"/>
<path d="M76 66C67.799 66 63.201 66 55 66C55 65.2267 61.6295 60.56 62.374 60.24C63.1186 59.92 67.6649 59.92 68.4656 60.24C69.2663 60.56 76 65.44 76 66Z" fill="#449B00"/>
<path d="M55 66C63.201 66 67.799 66 76 66C76 66.6133 69.3704 71.44 68.6259 71.76C67.8814 72.08 63.335 72.08 62.5343 71.76C61.7336 71.44 55 66.72 55 66Z" fill="#449B00"/>
<path d="M65.5 4L65.5 72" stroke="#449B00" stroke-width="3"/>
<path d="M100 13C91.799 13 87.201 13 79 13C79 12.2267 85.6295 7.56 86.374 7.24C87.1186 6.92 91.6649 6.92 92.4656 7.24C93.2663 7.56 100 12.44 100 13Z" fill="#449B00"/>
<path d="M79 13C87.201 13 91.799 13 100 13C100 13.6133 93.3704 18.44 92.6259 18.76C91.8814 19.08 87.335 19.08 86.5343 18.76C85.7336 18.44 79 13.72 79 13Z" fill="#449B00"/>
<path d="M100 30C91.799 30 87.201 30 79 30C79 29.2267 85.6295 24.56 86.374 24.24C87.1186 23.92 91.6649 23.92 92.4656 24.24C93.2663 24.56 100 29.44 100 30Z" fill="#449B00"/>
<path d="M79 30C87.201 30 91.799 30 100 30C100 30.6133 93.3704 35.44 92.6259 35.76C91.8814 36.08 87.335 36.08 86.5343 35.76C85.7336 35.44 79 30.72 79 30Z" fill="#449B00"/>
<path d="M100 42C91.799 42 87.201 42 79 42C79 41.2267 85.6295 36.56 86.374 36.24C87.1186 35.92 91.6649 35.92 92.4656 36.24C93.2663 36.56 100 41.44 100 42Z" fill="#449B00"/>
<path d="M79 42C87.201 42 91.799 42 100 42C100 42.6133 93.3704 47.44 92.6259 47.76C91.8814 48.08 87.335 48.08 86.5343 47.76C85.7336 47.44 79 42.72 79 42Z" fill="#449B00"/>
<path d="M100 54C91.799 54 87.201 54 79 54C79 53.2267 85.6295 48.56 86.374 48.24C87.1186 47.92 91.6649 47.92 92.4656 48.24C93.2663 48.56 100 53.44 100 54Z" fill="#449B00"/>
<path d="M79 54C87.201 54 91.799 54 100 54C100 54.6133 93.3704 59.44 92.6259 59.76C91.8814 60.08 87.335 60.08 86.5343 59.76C85.7336 59.44 79 54.72 79 54Z" fill="#449B00"/>
<path d="M100 66C91.799 66 87.201 66 79 66C79 65.2267 85.6295 60.56 86.374 60.24C87.1186 59.92 91.6649 59.92 92.4656 60.24C93.2663 60.56 100 65.44 100 66Z" fill="#449B00"/>
<path d="M79 66C87.201 66 91.799 66 100 66C100 66.6133 93.3704 71.44 92.6259 71.76C91.8814 72.08 87.335 72.08 86.5343 71.76C85.7336 71.44 79 66.72 79 66Z" fill="#449B00"/>
<path d="M89.5 4L89.5 72" stroke="#449B00" stroke-width="3"/>
<path d="M124 13C115.799 13 111.201 13 103 13C103 12.2267 109.63 7.56 110.374 7.24C111.119 6.92 115.665 6.92 116.466 7.24C117.266 7.56 124 12.44 124 13Z" fill="#449B00"/>
<path d="M103 13C111.201 13 115.799 13 124 13C124 13.6133 117.37 18.44 116.626 18.76C115.881 19.08 111.335 19.08 110.534 18.76C109.734 18.44 103 13.72 103 13Z" fill="#449B00"/>
<path d="M124 30C115.799 30 111.201 30 103 30C103 29.2267 109.63 24.56 110.374 24.24C111.119 23.92 115.665 23.92 116.466 24.24C117.266 24.56 124 29.44 124 30Z" fill="#449B00"/>
<path d="M103 30C111.201 30 115.799 30 124 30C124 30.6133 117.37 35.44 116.626 35.76C115.881 36.08 111.335 36.08 110.534 35.76C109.734 35.44 103 30.72 103 30Z" fill="#449B00"/>
<path d="M124 42C115.799 42 111.201 42 103 42C103 41.2267 109.63 36.56 110.374 36.24C111.119 35.92 115.665 35.92 116.466 36.24C117.266 36.56 124 41.44 124 42Z" fill="#449B00"/>
<path d="M103 42C111.201 42 115.799 42 124 42C124 42.6133 117.37 47.44 116.626 47.76C115.881 48.08 111.335 48.08 110.534 47.76C109.734 47.44 103 42.72 103 42Z" fill="#449B00"/>
<path d="M124 54C115.799 54 111.201 54 103 54C103 53.2267 109.63 48.56 110.374 48.24C111.119 47.92 115.665 47.92 116.466 48.24C117.266 48.56 124 53.44 124 54Z" fill="#449B00"/>
<path d="M103 54C111.201 54 115.799 54 124 54C124 54.6133 117.37 59.44 116.626 59.76C115.881 60.08 111.335 60.08 110.534 59.76C109.734 59.44 103 54.72 103 54Z" fill="#449B00"/>
<path d="M124 66C115.799 66 111.201 66 103 66C103 65.2267 109.63 60.56 110.374 60.24C111.119 59.92 115.665 59.92 116.466 60.24C117.266 60.56 124 65.44 124 66Z" fill="#449B00"/>
<path d="M103 66C111.201 66 115.799 66 124 66C124 66.6133 117.37 71.44 116.626 71.76C115.881 72.08 111.335 72.08 110.534 71.76C109.734 71.44 103 66.72 103 66Z" fill="#449B00"/>
<path d="M113.5 4L113.5 72" stroke="#449B00" stroke-width="3"/>
<path d="M9 1.75H122C126.069 1.75 129.25 4.90616 129.25 8.65823V67.3418C129.25 71.0938 126.069 74.25 122 74.25H9C4.93146 74.25 1.75 71.0938 1.75 67.3418V8.65823C1.75 4.90616 4.93146 1.75 9 1.75Z" stroke="#449B00" stroke-width="3.5" stroke-linejoin="round"/>
<path d="M127.5 21H3" stroke="#449B00" stroke-width="3.5"/>
</svg>
