<svg viewBox="0 0 41 40" fill="none" xmlns="http://www.w3.org/2000/svg" style="cursor: pointer;">
<g clip-path="url(#clip0_67_1022)">
<path d="M13.1425 37.1923C28.0563 37.1923 36.2147 24.985 36.2147 14.4174C36.2147 14.0758 36.2147 13.7293 36.1999 13.3877C37.7882 12.2519 39.1591 10.8456 40.2482 9.23486C38.7645 9.88109 37.1922 10.307 35.5824 10.4988C37.2781 9.49749 38.5482 7.92207 39.1565 6.06531C37.5633 6.99769 35.8195 7.65222 34.0016 8.00022C32.7794 6.71441 31.1621 5.86259 29.4002 5.57672C27.6383 5.29085 25.8301 5.58688 24.2558 6.41896C22.6815 7.25103 21.4288 8.57272 20.6919 10.1793C19.9549 11.7858 19.7748 13.5876 20.1795 15.3056C16.9555 15.1459 13.8015 14.3185 10.922 12.8771C8.04259 11.4358 5.50199 9.4126 3.46503 6.93883C2.43094 8.70314 2.11536 10.7901 2.58236 12.7759C3.04937 14.7618 4.26396 16.4976 5.97948 17.6309C4.69395 17.5877 3.43667 17.2467 2.30907 16.6353V16.7451C2.31129 18.5934 2.95944 20.3842 4.14396 21.8149C5.32849 23.2455 6.97674 24.2283 8.8101 24.597C8.11421 24.7864 7.39536 24.8808 6.67355 24.8776C6.16469 24.8792 5.65685 24.8326 5.15697 24.7386C5.67515 26.3296 6.6841 27.7206 8.04254 28.7169C9.40097 29.7132 11.0408 30.2648 12.7324 30.2944C9.85875 32.5241 6.30898 33.7334 2.65487 33.7275C2.01099 33.7302 1.36756 33.6935 0.728271 33.6177C4.43701 35.9534 8.74414 37.1936 13.1425 37.1923Z" fill="#1DA1F2"/>
</g>
<defs>
<clipPath id="clip0_67_1022">
<rect width="39.5199" height="39.0398" fill="white" transform="translate(0.728271 0.592285)"/>
</clipPath>
</defs>
</svg>
