<svg viewBox="0 0 68 80" fill="none" xmlns="http://www.w3.org/2000/svg">
<path d="M33.5084 80.0001C22.0082 66.5001 -0.491697 54.0001 0.00819284 33.5001C0.00819284 15.2747 17.0084 0 33.5084 0C88.5 8 48.5 62.4015 33.5084 80.0001Z" fill="#2DC4B1"/>
<path d="M33.5084 80.0001C45.0086 66.5001 67.5083 54.0001 67.0084 33.5001C67.0084 15.2747 50.0084 0 33.5084 0C88.5 8 48.5 62.4015 33.5084 80.0001Z" fill="#2DC4B1"/>
<circle cx="33.5" cy="33.5" r="25.5" fill="white"/>
<path d="M33.5001 71C24.4052 60.2 6.61114 50.2 7.00648 33.8001C7.00648 19.2198 20.4511 7 33.5001 7C74 15.5 58.5 50.5 33.5001 71Z" fill="white"/>
<path d="M33.5001 71C33.5001 71 60.3889 50.2 59.9935 33.8001C59.9935 19.2198 46.5491 7 33.5001 7C74 15.5 58.5 50.5 33.5001 71Z" fill="white"/>
<circle cx="26.75" cy="23.75" r="3.75" fill="#2BC0AE"/>
<circle cx="41.25" cy="23.75" r="3.75" fill="#2BC0AE"/>
<path d="M39 32C39 34.7614 36.7614 37 34 37C31.2386 37 29 34.7614 29 32L34 32L39 32Z" fill="#2BC0AE"/>
<rect x="38.0067" y="16.816" width="3.79418" height="1" rx="0.5" transform="rotate(-10 38.0067 16.816)" fill="#2BC0AE"/>
<rect x="29.8" y="17.8008" width="3.79418" height="1" rx="0.5" transform="rotate(-170 29.8 17.8008)" fill="#2BC0AE"/>
</svg>
