<svg viewBox="0 0 30 24" fill="none" xmlns="http://www.w3.org/2000/svg">
<path d="M29.25 9.75H26.25V6.75C26.25 6.3375 25.9125 6 25.5 6H24C23.5875 6 23.25 6.3375 23.25 6.75V9.75H20.25C19.8375 9.75 19.5 10.0875 19.5 10.5V12C19.5 12.4125 19.8375 12.75 20.25 12.75H23.25V15.75C23.25 16.1625 23.5875 16.5 24 16.5H25.5C25.9125 16.5 26.25 16.1625 26.25 15.75V12.75H29.25C29.6625 12.75 30 12.4125 30 12V10.5C30 10.0875 29.6625 9.75 29.25 9.75ZM10.5 12C13.8141 12 16.5 9.31406 16.5 6C16.5 2.68594 13.8141 0 10.5 0C7.18594 0 4.5 2.68594 4.5 6C4.5 9.31406 7.18594 12 10.5 12ZM14.7 13.5H13.9172C12.8766 13.9781 11.7188 14.25 10.5 14.25C9.28125 14.25 8.12813 13.9781 7.08281 13.5H6.3C2.82187 13.5 0 16.3219 0 19.8V21.75C0 22.9922 1.00781 24 2.25 24H18.75C19.9922 24 21 22.9922 21 21.75V19.8C21 16.3219 18.1781 13.5 14.7 13.5Z" fill="#449B00"/>
</svg>
