<svg viewBox="0 0 24 25" fill="none" xmlns="http://www.w3.org/2000/svg">
<path d="M8.4 24.6892C8.08174 24.6892 7.77652 24.5591 7.55147 24.3276C7.32643 24.0961 7.2 23.7821 7.2 23.4547V19.7514H2.4C1.76348 19.7514 1.15303 19.4912 0.702944 19.0282C0.252856 18.5652 0 17.9372 0 17.2824V2.46892C0 1.09867 1.08 0 2.4 0H21.6C22.2365 0 22.847 0.260117 23.2971 0.72313C23.7471 1.18614 24 1.81412 24 2.46892V17.2824C24 17.9372 23.7471 18.5652 23.2971 19.0282C22.847 19.4912 22.2365 19.7514 21.6 19.7514H14.28L9.84 24.3312C9.6 24.5658 9.3 24.6892 9 24.6892H8.4ZM9.6 17.2824V21.0846L13.296 17.2824H21.6V2.46892H2.4V17.2824H9.6ZM4.8 6.1723H19.2V8.64122H4.8V6.1723ZM4.8 11.1101H15.6V13.5791H4.8V11.1101Z" fill="#449B00"/>
</svg>
