<svg viewBox="0 0 40 40" fill="none" xmlns="http://www.w3.org/2000/svg" style="cursor: pointer;">
<g clip-path="url(#clip0_67_1018)">
<path d="M39.9188 7.2025C39.9188 5.50512 39.2602 4.00576 37.9429 2.70443C36.6255 1.40311 35.1077 0.752441 33.3895 0.752441H6.9283C5.21005 0.752441 3.69225 1.40311 2.37492 2.70443C1.05759 4.00576 0.398926 5.50512 0.398926 7.2025V33.3422C0.398926 35.0396 1.05759 36.539 2.37492 37.8403C3.69225 39.1416 5.21005 39.7923 6.9283 39.7923H20.1589V25.025H15.3478V18.575H20.1589V16.0289C20.1589 13.8223 20.8891 11.8845 22.3497 10.2154C23.8102 8.54627 25.5428 7.71172 27.5474 7.71172H32.874V14.1618H27.5474C27.261 14.1618 26.989 14.3315 26.7312 14.671C26.4735 15.0105 26.3446 15.4348 26.3446 15.944V18.575H32.874V25.025H26.3446V39.7923H33.3895C35.1077 39.7923 36.6255 39.1416 37.9429 37.8403C39.2602 36.539 39.9188 35.0396 39.9188 33.3422V7.2025Z" fill="#1877f2"/>
</g>
<defs>
<clipPath id="clip0_67_1018">
<rect width="39.5199" height="39.0398" fill="#ffffff" transform="translate(0.228516 0.592285)"/>
</clipPath>
</defs>
</svg>
