<svg viewBox="0 0 69 69" fill="none" xmlns="http://www.w3.org/2000/svg">
<path d="M43.0303 2H20.1501C16.2032 2 13 5.20323 13 9.15007V57.7706C13 61.7174 16.2032 64.9206 20.1501 64.9206H43.0303C46.9771 64.9206 50.1804 61.7174 50.1804 57.7706V9.15007C50.1804 5.20323 46.9771 2 43.0303 2ZM31.5902 62.0606C29.2164 62.0606 27.3001 60.1444 27.3001 57.7706C27.3001 55.3967 29.2164 53.4805 31.5902 53.4805C33.964 53.4805 35.8802 55.3967 35.8802 57.7706C35.8802 60.1444 33.964 62.0606 31.5902 62.0606ZM44.4603 50.6205H18.7201V10.5801H44.4603V50.6205Z" fill="#449B00"/>
<path d="M31.7 40C37.2228 40 41.7 35.5228 41.7 30C41.7 24.4772 37.2228 20 31.7 20C26.1771 20 21.7 24.4772 21.7 30C21.7 35.5228 26.1771 40 31.7 40Z" stroke="#449B00" stroke-width="3.2"/>
<path d="M28 30.5L31 33.5L36 27.5" stroke="#449B00" stroke-width="2.5" stroke-linecap="round" stroke-linejoin="round"/>
<path d="M56 65.375C56 64.0082 56 61.875 56 61.875C56 60.0185 55.2625 58.238 53.9497 56.9253C52.637 55.6125 50.8565 54.875 49 54.875H47.25C46.7859 54.875 46.3408 54.6906 46.0126 54.3624C45.6844 54.0342 45.5 53.5891 45.5 53.125V44.375C45.5 43.4467 45.1313 42.5565 44.4749 41.9001C43.8185 41.2437 42.9283 40.875 42 40.875C41.0717 40.875 40.1815 41.2437 39.5251 41.9001C38.8687 42.5565 38.5 43.4467 38.5 44.375V60.125L34.3 54.525C33.974 54.0903 33.5512 53.7375 33.0652 53.4945C32.5793 53.2515 32.0434 53.125 31.5 53.125H30.7405C29.2267 53.125 28 54.3517 28 55.8655C28 56.3625 28.1348 56.8507 28.3903 57.276L33.25 65.375" fill="#FBFF50"/>
<path d="M56 64.5V61C56 59.1435 55.2625 57.363 53.9497 56.0503C52.637 54.7375 50.8565 54 49 54H47.25C46.7859 54 46.3408 53.8156 46.0126 53.4874C45.6844 53.1592 45.5 52.7141 45.5 52.25V43.5C45.5 42.5717 45.1313 41.6815 44.4749 41.0251C43.8185 40.3687 42.9283 40 42 40C41.0717 40 40.1815 40.3687 39.5251 41.0251C38.8687 41.6815 38.5 42.5717 38.5 43.5V59.25L34.3 53.65C33.974 53.2153 33.5512 52.8625 33.0652 52.6195C32.5793 52.3765 32.0434 52.25 31.5 52.25H30.7405C29.2267 52.25 28 53.4767 28 54.9905C28 55.4875 28.1348 55.9757 28.3903 56.401L33.25 64.5" stroke="#449B00" stroke-width="2" stroke-linecap="round" stroke-linejoin="round"/>
</svg>
