<svg viewBox="0 0 60 60" fill="none" xmlns="http://www.w3.org/2000/svg">
<path fill-rule="evenodd" clip-rule="evenodd" d="M50 16.6665C50 15.3404 50.5268 14.0687 51.4645 13.131C52.4022 12.1933 53.6739 11.6665 55 11.6665C56.3261 11.6665 57.5978 12.1933 58.5355 13.131C59.4732 14.0687 60 15.3404 60 16.6665V50.5048L55 58.0048L50 50.5048V16.6665ZM55 14.9998C54.558 14.9998 54.134 15.1754 53.8215 15.488C53.5089 15.8006 53.3333 16.2245 53.3333 16.6665V49.4948L55 51.9948L56.6667 49.4948V16.6665C56.6667 16.2245 56.4911 15.8006 56.1785 15.488C55.866 15.1754 55.442 14.9998 55 14.9998Z" fill="#449B00"/>
<path fill-rule="evenodd" clip-rule="evenodd" d="M58.3333 23.3333H51.6667V20H58.3333V23.3333ZM6.66667 3.33333C5.78261 3.33333 4.93477 3.68452 4.30964 4.30964C3.68452 4.93477 3.33333 5.78261 3.33333 6.66667V53.3333C3.33333 54.2174 3.68452 55.0652 4.30964 55.6904C4.93477 56.3155 5.78261 56.6667 6.66667 56.6667H40C40.8841 56.6667 41.7319 56.3155 42.357 55.6904C42.9821 55.0652 43.3333 54.2174 43.3333 53.3333V6.66667C43.3333 5.78261 42.9821 4.93477 42.357 4.30964C41.7319 3.68452 40.8841 3.33333 40 3.33333H6.66667ZM0 6.66667C0 4.89856 0.702379 3.20286 1.95262 1.95262C3.20286 0.702379 4.89856 0 6.66667 0H40C41.7681 0 43.4638 0.702379 44.714 1.95262C45.9643 3.20286 46.6667 4.89856 46.6667 6.66667V53.3333C46.6667 55.1014 45.9643 56.7971 44.714 58.0474C43.4638 59.2976 41.7681 60 40 60H6.66667C4.89856 60 3.20286 59.2976 1.95262 58.0474C0.702379 56.7971 0 55.1014 0 53.3333V6.66667Z" fill="#449B00"/>
<path fill-rule="evenodd" clip-rule="evenodd" d="M23.3331 15.0002C23.3331 14.5581 23.5087 14.1342 23.8213 13.8217C24.1339 13.5091 24.5578 13.3335 24.9998 13.3335H38.3331C38.7752 13.3335 39.1991 13.5091 39.5117 13.8217C39.8242 14.1342 39.9998 14.5581 39.9998 15.0002C39.9998 15.4422 39.8242 15.8661 39.5117 16.1787C39.1991 16.4912 38.7752 16.6668 38.3331 16.6668H24.9998C24.5578 16.6668 24.1339 16.4912 23.8213 16.1787C23.5087 15.8661 23.3331 15.4422 23.3331 15.0002ZM23.3331 21.6668C23.3331 21.2248 23.5087 20.8009 23.8213 20.4883C24.1339 20.1758 24.5578 20.0002 24.9998 20.0002H38.3331C38.7752 20.0002 39.1991 20.1758 39.5117 20.4883C39.8242 20.8009 39.9998 21.2248 39.9998 21.6668C39.9998 22.1089 39.8242 22.5328 39.5117 22.8453C39.1991 23.1579 38.7752 23.3335 38.3331 23.3335H24.9998C24.5578 23.3335 24.1339 23.1579 23.8213 22.8453C23.5087 22.5328 23.3331 22.1089 23.3331 21.6668ZM23.3331 36.6668C23.3331 36.2248 23.5087 35.8009 23.8213 35.4883C24.1339 35.1758 24.5578 35.0002 24.9998 35.0002H38.3331C38.7752 35.0002 39.1991 35.1758 39.5117 35.4883C39.8242 35.8009 39.9998 36.2248 39.9998 36.6668C39.9998 37.1089 39.8242 37.5328 39.5117 37.8453C39.1991 38.1579 38.7752 38.3335 38.3331 38.3335H24.9998C24.5578 38.3335 24.1339 38.1579 23.8213 37.8453C23.5087 37.5328 23.3331 37.1089 23.3331 36.6668ZM23.3331 43.3335C23.3331 42.8915 23.5087 42.4675 23.8213 42.155C24.1339 41.8424 24.5578 41.6668 24.9998 41.6668H38.3331C38.7752 41.6668 39.1991 41.8424 39.5117 42.155C39.8242 42.4675 39.9998 42.8915 39.9998 43.3335C39.9998 43.7755 39.8242 44.1994 39.5117 44.512C39.1991 44.8246 38.7752 45.0002 38.3331 45.0002H24.9998C24.5578 45.0002 24.1339 44.8246 23.8213 44.512C23.5087 44.1994 23.3331 43.7755 23.3331 43.3335ZM9.99981 36.6668V41.6668H14.9998V36.6668H9.99981ZM8.33314 33.3335H16.6665C17.1085 33.3335 17.5324 33.5091 17.845 33.8216C18.1575 34.1342 18.3331 34.5581 18.3331 35.0002V43.3335C18.3331 43.7755 18.1575 44.1994 17.845 44.512C17.5324 44.8246 17.1085 45.0002 16.6665 45.0002H8.33314C7.89112 45.0002 7.46719 44.8246 7.15463 44.512C6.84207 44.1994 6.66648 43.7755 6.66648 43.3335V35.0002C6.66648 34.5581 6.84207 34.1342 7.15463 33.8216C7.46719 33.5091 7.89112 33.3335 8.33314 33.3335ZM19.5115 13.8218C19.8239 14.1344 19.9995 14.5582 19.9995 15.0002C19.9995 15.4421 19.8239 15.8659 19.5115 16.1785L11.6665 24.0235L7.15481 19.5118C6.99563 19.3581 6.86866 19.1742 6.78131 18.9708C6.69396 18.7675 6.64798 18.5488 6.64606 18.3275C6.64414 18.1062 6.68631 17.8867 6.77011 17.6819C6.85391 17.4771 6.97766 17.291 7.13415 17.1345C7.29064 16.978 7.47673 16.8543 7.68155 16.7705C7.88638 16.6867 8.10585 16.6445 8.32715 16.6464C8.54844 16.6483 8.76714 16.6943 8.97048 16.7817C9.17382 16.869 9.35773 16.996 9.51148 17.1552L11.6665 19.3102L17.1548 13.8218C17.4674 13.5094 17.8912 13.3339 18.3331 13.3339C18.7751 13.3339 19.1989 13.5094 19.5115 13.8218Z" fill="#449B00"/>
</svg>
