<svg viewBox="0 0 24 24" fill="none" xmlns="http://www.w3.org/2000/svg">
<path d="M20 21V19C20 17.9391 19.5786 16.9217 18.8284 16.1716C18.0783 15.4214 17.0609 15 16 15H15C14.7348 15 14.4804 14.8946 14.2929 14.7071C14.1054 14.5196 14 14.2652 14 14V9C14 8.46957 13.7893 7.96086 13.4142 7.58579C13.0391 7.21071 12.5304 7 12 7V7C11.4696 7 10.9609 7.21071 10.5858 7.58579C10.2107 7.96086 10 8.46957 10 9V18L7.6 14.8C7.41371 14.5516 7.17214 14.35 6.89443 14.2111C6.61672 14.0723 6.31049 14 6 14H5.566C4.701 14 4 14.701 4 15.566C4 15.85 4.077 16.129 4.223 16.372L7 21M12 4V3M18 10H19M5 10H6M7.343 5.343L6.636 4.636M16.657 5.343L17.364 4.636" stroke="#ffffff" stroke-width="2" stroke-linecap="round" stroke-linejoin="round"/>
</svg>
