<svg viewBox="0 0 28 22" fill="none" xmlns="http://www.w3.org/2000/svg">
<g clip-path="url(#clip0_94_676)">
<path d="M23.8391 2.75C23.8391 1.23105 22.5441 0 21.0391 0C19.4554 0 18.2391 1.23105 18.2391 2.75C18.2391 4.26895 19.4554 5.5 21.0391 5.5C22.5441 5.5 23.8391 4.26895 23.8391 2.75ZM24.1498 20.625V17.1875H24.9285C25.4063 17.1875 25.7436 16.7277 25.5926 16.2809L24.2303 12.2676L25.4841 13.8918C25.9514 14.4977 26.8295 14.618 27.4455 14.1582C28.0617 13.6984 28.1824 12.8348 27.7153 12.2332L25.1385 8.85586C24.1568 7.62266 22.6229 6.875 20.9998 6.875C19.3723 6.875 17.841 7.62266 16.861 8.85586L14.2841 12.2332C13.816 12.8348 13.9385 13.6984 14.5554 14.1582C15.1679 14.618 16.0473 14.4977 16.5154 13.8918L17.7666 12.2719L16.4454 16.2809C16.2573 16.7277 16.5941 17.1875 17.071 17.1875H17.8498V20.625C17.8498 21.3855 18.4754 22 19.2498 22C20.0241 22 20.6498 21.3855 20.6498 20.625V17.1875H21.3498V20.625C21.3498 21.3855 21.9754 22 22.7498 22C23.5241 22 24.1498 21.3855 24.1498 20.625ZM9.79976 2.75C9.79976 1.23105 8.54414 0 6.99977 0C5.45539 0 4.19976 1.23105 4.19976 2.75C4.19976 4.26895 5.45539 5.5 6.99977 5.5C8.54414 5.5 9.79976 4.26895 9.79976 2.75ZM7.34977 16.5V20.625C7.34977 21.3855 7.97539 22 8.74977 22C9.52414 22 10.1498 21.3855 10.1498 20.625V12.9121L10.7141 13.793C11.1254 14.4375 11.9916 14.6309 12.6829 14.227C13.2998 13.823 13.4966 12.9723 13.0854 12.2934L10.8235 8.8043C10.0535 7.60117 8.71039 6.83633 7.27102 6.83633H6.72852C5.28477 6.83633 3.94601 7.60117 3.17601 8.8043L0.914141 12.2934C0.50289 12.9723 0.699764 13.823 1.35601 14.227C2.00789 14.6309 2.87414 14.4375 3.28539 13.793L3.84976 12.9121V20.625C3.84976 21.3855 4.47539 22 5.24976 22C6.02414 22 6.64977 21.3855 6.64977 20.625V16.5H7.34977Z" fill="#ffffff"/>
</g>
</svg>
