<svg viewBox="0 0 174 174" fill="none" xmlns="http://www.w3.org/2000/svg">
<path d="M15.341 125.229C14.5899 123.81 12.8355 123.265 11.4203 124.028C10.0051 124.779 9.46573 126.533 10.2197 127.949C10.6953 128.848 11.1883 129.729 11.6958 130.605C12.2352 131.53 13.2067 132.049 14.2071 132.049C14.7001 132.049 15.2018 131.922 15.66 131.658C17.0462 130.854 17.5189 129.077 16.7127 127.693C16.24 126.879 15.7818 126.058 15.341 125.229Z" fill="#EC1C24"/>
<path d="M22.2336 28.901C21.5579 29.655 20.8967 30.4177 20.2442 31.1949C19.2177 32.4244 19.3772 34.2543 20.6038 35.2809C21.149 35.7362 21.8073 35.9566 22.4656 35.9566C23.295 35.9566 24.1157 35.6028 24.6928 34.9213C25.2988 34.1963 25.9194 33.4829 26.5516 32.7811C27.6217 31.5893 27.5231 29.7536 26.3341 28.6835C25.1393 27.6192 23.3153 27.7149 22.2336 28.901Z" fill="#EC1C24"/>
<path d="M23.0637 137.063C22.0748 135.799 20.2507 135.578 18.995 136.567C17.7307 137.553 17.5103 139.377 18.4992 140.636C19.1226 141.433 19.7635 142.219 20.4102 142.994C20.9844 143.675 21.8051 144.026 22.6345 144.026C23.2928 144.026 23.954 143.803 24.4991 143.347C25.7258 142.318 25.8853 140.488 24.8529 139.261C24.241 138.539 23.6466 137.806 23.0637 137.063Z" fill="#EC1C24"/>
<path d="M33.2944 18.5511C32.5027 19.1746 31.7197 19.8126 30.9454 20.4593C29.7216 21.4887 29.5621 23.3186 30.5916 24.5453C31.1658 25.2268 31.9865 25.5777 32.8159 25.5777C33.4742 25.5777 34.1353 25.3544 34.6805 24.8991C35.4026 24.2901 36.1392 23.6927 36.8816 23.1098C38.1402 22.1209 38.3606 20.2969 37.3688 19.0383C36.3799 17.7826 34.5587 17.5564 33.2944 18.5511Z" fill="#EC1C24"/>
<path d="M32.732 147.399C31.543 146.329 29.7131 146.416 28.6373 147.607C27.5643 148.796 27.6571 150.629 28.846 151.702C29.5971 152.381 30.3627 153.048 31.1399 153.697C31.6851 154.153 32.3434 154.373 33.0017 154.373C33.8311 154.373 34.6517 154.019 35.2288 153.338C36.2554 152.108 36.0959 150.278 34.8692 149.252C34.1413 148.648 33.4309 148.028 32.732 147.399Z" fill="#EC1C24"/>
<path d="M59.2952 163.348C58.4049 163.026 57.5263 162.687 56.6476 162.333C55.1628 161.73 53.4721 162.446 52.8718 163.934C52.2716 165.419 52.9849 167.11 54.4726 167.71C55.4122 168.093 56.3605 168.458 57.3175 168.803C57.6452 168.922 57.9787 168.977 58.3063 168.977C59.4924 168.977 60.606 168.243 61.0323 167.066C61.5775 165.558 60.7974 163.896 59.2952 163.348Z" fill="#EC1C24"/>
<path d="M45.9727 10.263C45.0825 10.7386 44.2038 11.2316 43.3309 11.7362C41.9447 12.5395 41.472 14.3172 42.2782 15.7004C42.8176 16.6255 43.7891 17.1446 44.7896 17.1446C45.2826 17.1446 45.7842 17.017 46.2424 16.7531C47.0573 16.2775 47.8809 15.8193 48.7161 15.3699C50.1255 14.613 50.6591 12.8585 49.8993 11.4433C49.1453 10.0368 47.385 9.50036 45.9727 10.263Z" fill="#EC1C24"/>
<path d="M46.4631 157.374C45.6424 156.902 44.8305 156.415 44.0301 155.913C42.6758 155.069 40.8836 155.481 40.0339 156.838C39.1872 158.195 39.6018 159.984 40.959 160.834C41.8174 161.371 42.6845 161.89 43.5603 162.397C44.0185 162.661 44.5144 162.786 45.0073 162.786C46.0107 162.786 46.9851 162.264 47.5216 161.336C48.3278 159.947 47.8493 158.172 46.4631 157.374Z" fill="#EC1C24"/>
<path d="M59.9046 4.30076C58.9389 4.61685 57.9849 4.95035 57.0366 5.29834C55.5315 5.84933 54.763 7.5168 55.314 9.01897C55.7432 10.1905 56.8539 10.9184 58.0342 10.9184C58.3648 10.9184 58.704 10.8604 59.0346 10.7386C59.922 10.4138 60.8123 10.1036 61.7113 9.81066C63.2338 9.31187 64.0632 7.6734 63.5644 6.15092C63.0627 4.63135 61.43 3.80197 59.9046 4.30076Z" fill="#EC1C24"/>
<path d="M10.7157 114.893C10.3938 114.003 10.0806 113.11 9.78769 112.208C9.286 110.685 7.65333 109.859 6.12795 110.355C4.60548 110.853 3.7761 112.492 4.27489 114.014C4.59098 114.977 4.92158 115.928 5.26667 116.874C5.69296 118.051 6.80654 118.782 7.98972 118.782C8.31741 118.782 8.65381 118.724 8.9815 118.605C10.4895 118.063 11.2638 116.398 10.7157 114.893Z" fill="#EC1C24"/>
<path d="M6.90745 61.0991C7.23514 61.218 7.56864 61.2731 7.89633 61.2731C9.08241 61.2731 10.196 60.5394 10.6223 59.362C10.9442 58.4689 11.2864 57.5844 11.6373 56.7057C12.2347 55.218 11.5155 53.5302 10.0278 52.9329C8.54592 52.3384 6.84945 53.0547 6.25496 54.5423C5.87507 55.4819 5.51257 56.4302 5.16748 57.3843C4.62519 58.8922 5.40528 60.5539 6.90745 61.0991Z" fill="#EC1C24"/>
<path d="M12.6266 47.5883C13.0848 47.8522 13.5807 47.9769 14.0737 47.9769C15.0771 47.9769 16.0515 47.4549 16.5879 46.5269C17.0606 45.7033 17.5507 44.8913 18.0495 44.0851C18.8934 42.725 18.4758 40.9387 17.1157 40.0919C15.7557 39.2509 13.9693 39.6627 13.1225 41.0257C12.5889 41.8812 12.0727 42.7511 11.5652 43.624C10.7619 45.016 11.2404 46.7908 12.6266 47.5883Z" fill="#EC1C24"/>
<path d="M166.924 72.6119C167.092 73.537 167.24 74.4708 167.373 75.4075C167.579 76.8545 168.82 77.8956 170.241 77.8956C170.378 77.8956 170.517 77.8869 170.656 77.8666C172.242 77.6404 173.344 76.1702 173.118 74.5839C172.973 73.5776 172.814 72.58 172.634 71.5853C172.35 70.0078 170.83 68.9609 169.267 69.2422C167.689 69.5293 166.64 71.0372 166.924 72.6119Z" fill="#EC1C24"/>
<path d="M163.226 58.9589C163.551 59.8463 163.864 60.7366 164.157 61.6356C164.56 62.8594 165.691 63.6308 166.912 63.6308C167.214 63.6308 167.515 63.5844 167.817 63.4858C169.339 62.987 170.169 61.3485 169.67 59.826C169.354 58.8603 169.018 57.9063 168.67 56.958C168.119 55.4558 166.448 54.6815 164.949 55.2354C163.444 55.7893 162.672 57.4568 163.226 58.9589Z" fill="#EC1C24"/>
<path d="M3.63927 75.4017C3.81037 75.4307 3.97277 75.4452 4.13806 75.4452C5.52424 75.4452 6.74801 74.4505 6.99161 73.0411C7.15401 72.1073 7.3309 71.1765 7.5252 70.2514C7.8471 68.6825 6.84081 67.1484 5.27484 66.8207C3.70597 66.5075 2.169 67.5022 1.8442 69.0711C1.64121 70.06 1.44981 71.0518 1.27872 72.0464C1.00612 73.6298 2.0617 75.1291 3.63927 75.4017Z" fill="#EC1C24"/>
<path d="M4.68931 104.59C6.26688 104.311 7.31956 102.806 7.04116 101.231C6.87587 100.303 6.73087 99.3668 6.59747 98.4272C6.37128 96.841 4.8981 95.7274 3.31473 95.9652C1.72846 96.1914 0.626482 97.6616 0.852677 99.2479C0.997675 100.251 1.15427 101.246 1.33117 102.238C1.58056 103.644 2.80144 104.633 4.18182 104.633C4.35001 104.636 4.51821 104.622 4.68931 104.59Z" fill="#EC1C24"/>
<path d="M5.79989 86.9985C5.79989 86.0966 5.81439 85.2006 5.84339 84.3045C5.89849 82.7037 4.64571 81.3639 3.04204 81.3117C1.56017 81.1696 0.0985982 82.5094 0.0492991 84.1131C0.0115998 85.0701 0 86.03 0 86.9985V87.1406C0 88.7443 1.29628 89.971 2.89995 89.971C4.50362 89.971 5.79989 88.6022 5.79989 86.9985Z" fill="#EC1C24"/>
<path d="M158.59 48.6496C159.115 49.6211 160.112 50.1721 161.145 50.1721C161.609 50.1721 162.081 50.0619 162.519 49.8241C163.928 49.0643 164.456 47.307 163.694 45.8976C163.215 45.0073 162.725 44.1315 162.22 43.2615C161.417 41.8783 159.648 41.4085 158.256 42.2089C156.87 43.0122 156.397 44.7898 157.204 46.1731C157.679 46.9909 158.14 47.8174 158.59 48.6496Z" fill="#EC1C24"/>
<path d="M142.735 20.1983C141.505 19.1688 139.679 19.337 138.649 20.5579C137.622 21.7874 137.782 23.6173 139.009 24.6439C139.737 25.2529 140.45 25.8706 141.157 26.5056C141.708 27.0015 142.402 27.2451 143.092 27.2451C143.886 27.2451 144.681 26.9203 145.252 26.2794C146.319 25.0876 146.218 23.2519 145.026 22.1847C144.272 21.509 143.509 20.8478 142.735 20.1983Z" fill="#EC1C24"/>
<path d="M155.4 33.2393C154.774 32.4418 154.133 31.656 153.48 30.8817C152.454 29.6579 150.618 29.4955 149.394 30.5395C148.17 31.5719 148.017 33.4017 149.052 34.6255C149.661 35.3447 150.255 36.0726 150.835 36.815C151.407 37.5458 152.259 37.9286 153.121 37.9286C153.747 37.9286 154.376 37.7285 154.904 37.3109C156.168 36.322 156.389 34.5008 155.4 33.2393Z" fill="#EC1C24"/>
<path d="M149.208 139.186C148.605 139.908 147.984 140.619 147.352 141.315C146.276 142.501 146.366 144.336 147.552 145.412C148.106 145.914 148.805 146.163 149.501 146.163C150.29 146.163 151.079 145.844 151.65 145.212C152.331 144.458 152.998 143.692 153.651 142.912C154.678 141.683 154.518 139.853 153.291 138.826C152.065 137.797 150.238 137.962 149.208 139.186Z" fill="#EC1C24"/>
<path d="M139.203 149.191C138.481 149.8 137.747 150.391 137.005 150.974C135.74 151.96 135.52 153.784 136.509 155.043C137.08 155.774 137.933 156.156 138.794 156.156C139.42 156.156 140.05 155.956 140.578 155.539C141.375 154.915 142.161 154.277 142.935 153.631C144.162 152.601 144.321 150.771 143.289 149.545C142.257 148.321 140.43 148.161 139.203 149.191Z" fill="#EC1C24"/>
<path d="M161.295 126.536C159.903 125.739 158.134 126.212 157.334 127.598C156.861 128.416 156.377 129.225 155.875 130.022C155.023 131.379 155.432 133.169 156.786 134.021C157.267 134.323 157.801 134.465 158.326 134.465C159.292 134.465 160.234 133.983 160.785 133.108C161.327 132.246 161.849 131.376 162.357 130.498C163.157 129.112 162.679 127.334 161.295 126.536Z" fill="#EC1C24"/>
<path d="M170.337 98.7375C168.762 98.4737 167.257 99.5176 166.979 101.095C166.813 102.029 166.634 102.963 166.439 103.888C166.115 105.454 167.121 106.991 168.69 107.318C168.887 107.359 169.087 107.379 169.281 107.379C170.627 107.379 171.833 106.44 172.12 105.068C172.323 104.085 172.518 103.096 172.692 102.101C172.97 100.518 171.914 99.0159 170.337 98.7375Z" fill="#EC1C24"/>
<path d="M173.994 86.6912C173.994 85.0875 172.698 83.7912 171.094 83.7912C169.491 83.7912 168.194 85.0875 168.194 86.6912L168.197 86.9985C168.197 87.9468 168.18 88.8893 168.148 89.8318C168.09 91.4355 169.343 92.7781 170.943 92.8303C170.978 92.8332 171.013 92.8332 171.048 92.8332C172.602 92.8332 173.887 91.6008 173.942 90.0348C173.98 89.0256 173.997 88.0164 173.997 86.9202L173.994 86.6912Z" fill="#EC1C24"/>
<path d="M72.9689 166.988C72.038 166.825 71.11 166.649 70.1907 166.454C68.6247 166.127 67.0878 167.127 66.7543 168.693C66.4208 170.259 67.4271 171.796 68.993 172.129C69.9819 172.338 70.9766 172.53 71.9742 172.701C72.1424 172.73 72.3077 172.744 72.473 172.744C73.8592 172.744 75.0829 171.75 75.3265 170.34C75.602 168.76 74.5464 167.26 72.9689 166.988Z" fill="#EC1C24"/>
<path d="M132.899 13.0818C132.043 12.5482 131.173 12.032 130.301 11.5245C128.906 10.727 127.14 11.2026 126.339 12.5859C125.539 13.975 126.017 15.7497 127.401 16.5472C128.224 17.0199 129.036 17.51 129.842 18.0088C130.318 18.3046 130.849 18.4438 131.368 18.4438C132.336 18.4438 133.285 17.9595 133.836 17.0721C134.677 15.7149 134.259 13.9286 132.899 13.0818Z" fill="#EC1C24"/>
<path d="M167.043 113.034C165.541 112.489 163.873 113.26 163.325 114.766C163 115.659 162.661 116.54 162.304 117.419C161.704 118.904 162.418 120.594 163.905 121.195C164.262 121.34 164.63 121.406 164.993 121.406C166.138 121.406 167.226 120.725 167.681 119.594C168.064 118.654 168.426 117.709 168.774 116.755C169.322 115.247 168.548 113.582 167.043 113.034Z" fill="#EC1C24"/>
<path d="M89.7939 0.046533C88.8688 0.0146336 87.9089 -0.00856602 86.8853 0.00303377L86.7693 2.90298V0.00303377C85.1656 0.00303377 83.9824 1.29931 83.9824 2.90298C83.9824 4.50375 85.3947 5.80003 86.9984 5.80003C87.8741 5.80003 88.747 5.81453 89.6141 5.84063C89.646 5.84353 89.675 5.84353 89.7069 5.84353C91.2642 5.84353 92.5518 4.60525 92.6011 3.03348C92.6533 1.43271 91.3976 0.0929321 89.7939 0.046533Z" fill="#EC1C24"/>
<path d="M101.159 166.968C100.234 167.133 99.3002 167.278 98.3635 167.408C96.7772 167.629 95.6723 169.096 95.8927 170.682C96.0957 172.132 97.3369 173.179 98.7608 173.179C98.8942 173.179 99.0305 173.171 99.1668 173.15C100.173 173.008 101.171 172.849 102.165 172.675C103.743 172.396 104.796 170.891 104.517 169.316C104.239 167.742 102.728 166.672 101.159 166.968Z" fill="#EC1C24"/>
<path d="M87.3174 168.214L86.9984 168.197C86.0733 168.197 85.1482 168.18 84.2347 168.151C82.634 168.11 81.2942 169.354 81.242 170.952C81.1869 172.556 82.4426 173.895 84.0433 173.945C85.0032 173.98 85.9689 173.997 86.9375 173.997C86.9868 174 87.0303 174 87.068 174C88.6716 174 90.0926 172.709 90.0926 171.109C90.0926 169.505 88.921 168.214 87.3174 168.214Z" fill="#EC1C24"/>
<path d="M74.6651 0.867219C73.6618 1.01222 72.6671 1.17171 71.6753 1.34861C70.0977 1.62701 69.0451 3.13208 69.3234 4.70675C69.5728 6.11322 70.7937 7.10211 72.1741 7.10211C72.3423 7.10211 72.5105 7.08761 72.6816 7.05571C73.6096 6.89041 74.5463 6.74251 75.4858 6.60912C77.0721 6.38292 78.1741 4.91265 77.9479 3.32637C77.7217 1.7401 76.2485 0.635223 74.6651 0.867219Z" fill="#EC1C24"/>
<path d="M104.833 1.83C103.847 1.62991 102.858 1.43851 101.866 1.26741C100.268 1.00062 98.7866 2.0533 98.514 3.62797C98.2414 5.20844 99.2999 6.71061 100.875 6.98031C101.811 7.14271 102.745 7.3196 103.673 7.511C103.867 7.5516 104.064 7.5719 104.256 7.5719C105.607 7.5719 106.814 6.62652 107.095 5.25194C107.414 3.68307 106.402 2.149 104.833 1.83Z" fill="#EC1C24"/>
<path d="M119.379 6.22922C118.439 5.84933 117.491 5.48973 116.537 5.14464C115.023 4.59365 113.367 5.37954 112.822 6.88461C112.277 8.39258 113.057 10.0542 114.562 10.5994C115.455 10.9213 116.34 11.2606 117.219 11.6115C117.572 11.7536 117.941 11.8203 118.3 11.8203C119.449 11.8203 120.536 11.133 120.991 10.002C121.583 8.51438 120.864 6.82661 119.379 6.22922Z" fill="#EC1C24"/>
<path d="M114.823 163.308C113.936 163.63 113.043 163.94 112.141 164.23C110.619 164.726 109.783 166.361 110.279 167.887C110.679 169.111 111.813 169.888 113.037 169.888C113.336 169.888 113.635 169.841 113.936 169.746C114.899 169.432 115.856 169.099 116.804 168.754C118.312 168.209 119.086 166.541 118.538 165.039C117.993 163.537 116.323 162.757 114.823 163.308Z" fill="#EC1C24"/>
<path d="M127.627 157.316C126.815 157.789 125.994 158.247 125.162 158.691C123.747 159.442 123.207 161.197 123.961 162.612C124.483 163.595 125.484 164.152 126.525 164.152C126.983 164.152 127.447 164.044 127.882 163.812C128.781 163.337 129.663 162.844 130.538 162.336C131.925 161.533 132.397 159.755 131.591 158.372C130.791 156.989 129.019 156.525 127.627 157.316Z" fill="#EC1C24"/>
</svg>
