<svg width="68" height="80" viewBox="0 0 68 80" fill="none" xmlns="http://www.w3.org/2000/svg">
<path d="M33.5084 80.0001C22.0082 66.5001 -0.491697 54.0001 0.00819284 33.5001C0.00819284 15.2747 17.0084 0 33.5084 0C33.5084 31.2419 33.5084 48.7582 33.5084 80.0001Z" fill="#EC1C24"/>
<path d="M33.5084 80.0001V0C33.5084 31.2419 33.5084 48.7582 33.5084 80.0001Z" fill="#EC1C24"/>
<path d="M33.5084 80.0001C45.0086 66.5001 67.5083 54.0001 67.0084 33.5001C67.0084 15.2747 50.0084 0 33.5084 0C33.5084 31.2419 33.5084 48.7582 33.5084 80.0001Z" fill="#EC1C24"/>
<path d="M33.5084 80.0001V0C33.5084 31.2419 33.5084 48.7582 33.5084 80.0001Z" fill="#EC1C24"/>
<path d="M33.5001 71C24.4052 60.2 6.61114 50.2 7.00648 33.8001C7.00648 19.2198 20.4511 7 33.5001 7C33.5001 31.9935 33.5001 46.0065 33.5001 71Z" fill="white"/>
<path d="M33.5001 71V7C33.5001 31.9935 33.5001 46.0065 33.5001 71Z" fill="white"/>
<path d="M33.5001 71C42.595 60.2 60.3889 50.2 59.9935 33.8001C59.9935 19.2198 46.5491 7 33.5001 7C33.5001 31.9935 33.5001 46.0065 33.5001 71Z" fill="white"/>
<path d="M33.5001 71V7C33.5001 31.9935 33.5001 46.0065 33.5001 71Z" fill="white"/>
<circle cx="25.75" cy="23.75" r="3.75" fill="#EC1C24"/>
<circle cx="42.75" cy="23.75" r="3.75" fill="#EC1C24"/>
<path d="M29.1188 32C28.6189 34.5 29.6188 38 33.6188 38C37.6188 38 39 34.5 38.6188 32" stroke="#EC1C24" stroke-width="3" stroke-linecap="round"/>
</svg>
