<svg viewBox="0 0 43 52" fill="none" xmlns="http://www.w3.org/2000/svg">
<path d="M0.00525679 21.775C-0.315489 35.1 14.1212 43.225 21.5001 52C28.8789 43.225 43.3155 35.1 42.9947 21.775C42.9947 9.92855 32.087 0 21.5001 0C10.9131 0 0.00525679 9.92855 0.00525679 21.775Z" fill="#8CC53E"/>
<path d="M6.00379 21.9125C5.77255 31.65 16.1804 37.5875 21.5 44C26.8197 37.5875 37.2274 31.65 36.9962 21.9125C36.9962 13.2555 29.1325 6 21.5 6C13.8676 6 6.00379 13.2555 6.00379 21.9125Z" fill="white"/>
<path d="M18 15.5C18 16.6046 17.1046 17.5 16 17.5C14.8954 17.5 14 16.6046 14 15.5C14 14.3954 14.8954 13.5 16 13.5C17.1046 13.5 18 14.3954 18 15.5Z" fill="#8CC53E" stroke="#8CC53E"/>
<path d="M29.5 15.5C29.5 16.6046 28.6046 17.5 27.5 17.5C26.3954 17.5 25.5 16.6046 25.5 15.5C25.5 14.3954 26.3954 13.5 27.5 13.5C28.6046 13.5 29.5 14.3954 29.5 15.5Z" fill="#8CC53E" stroke="#8CC53E"/>
<path d="M18.7735 21.1616C18.5093 22.8361 19.1925 25.1516 21.6711 25.0839C24.1496 25.0163 24.9418 22.6604 24.66 21.0008" stroke="#8CC53E" stroke-width="1.5" stroke-linecap="round"/>
<ellipse cx="12.75" cy="21" rx="2.75" ry="1" fill="#FFA217"/>
<ellipse cx="31.25" cy="21.5" rx="2.75" ry="1" fill="#FFA217"/>
</svg>
