<svg viewBox="0 0 197 58" fill="none" xmlns="http://www.w3.org/2000/svg">
<path fill-rule="evenodd" clip-rule="evenodd" d="M120.462 28.8C119.195 30.4 117.828 31.9333 116.362 33.4C117.028 35.8 116.995 38.4 116.262 41.2C115.395 44.6 114.128 47.0667 112.462 48.6L103.262 44.9C104.462 43.7 105.395 42.2 106.062 40.4C99.7952 43.3333 94.0952 44.1333 88.9618 42.8C85.8952 42 83.5618 40.5 81.9618 38.3C80.2952 35.9 79.8285 33.3 80.5618 30.5C81.2952 27.7 83.0285 25.3667 85.7618 23.5C88.6285 21.5 92.0285 20.5333 95.9618 20.6C96.1618 19.8667 96.3618 19.1333 96.5618 18.4L86.7618 16.3L88.3618 8.5L98.6618 11.5C98.7952 11.0333 99.0618 10.2667 99.4618 9.2L107.962 12C107.695 12.5333 107.428 13.1667 107.162 13.9L121.862 18.1L120.362 23.8L104.662 20.3C104.395 20.9 104.162 21.5 103.962 22.1C107.228 23.3 109.862 24.8 111.862 26.6C112.862 25.6667 113.762 24.7 114.562 23.7L120.462 28.8ZM94.1618 33.9C94.2285 31.8333 94.3952 29.6333 94.6618 27.3C92.8618 27.8333 91.7618 28.8 91.3618 30.2C91.2285 30.6667 91.2618 31.1667 91.4618 31.7C91.9285 32.7667 92.8285 33.5 94.1618 33.9ZM105.262 31.4C104.528 30.2667 103.528 29.3667 102.262 28.7C101.995 30.1667 101.762 31.6333 101.562 33.1C102.762 32.6333 103.995 32.0667 105.262 31.4V31.4Z" fill="#EC1C24"/>
<path d="M128.062 39.6C128.528 40.3334 128.762 41.1334 128.762 42C128.762 43.2 128.328 44.3667 127.462 45.5C126.528 46.5667 125.395 47.2667 124.062 47.6L121.362 45.3C122.095 44.9 122.662 44.4334 123.062 43.9001C123.528 43.3667 123.762 42.8334 123.762 42.3C123.762 41.9 123.662 41.6001 123.462 41.4001C122.995 40.8667 122.328 40.6 121.462 40.6C120.462 40.6 119.462 40.9 118.462 41.5L117.462 39.1C118.128 38.6334 118.962 38.2 119.962 37.8C121.028 37.4667 122.095 37.3 123.162 37.3C125.428 37.3 127.062 38.0667 128.062 39.6V39.6Z" fill="#EC1C24"/>
<path d="M164.462 40.4C164.795 40.8666 164.962 41.4 164.962 42C164.962 42.8666 164.662 43.7 164.062 44.5C163.395 45.2333 162.595 45.7333 161.662 46L159.762 44.2999C160.295 44.0999 160.695 43.8 160.962 43.4C161.295 43 161.462 42.6 161.462 42.2C161.462 41.9333 161.395 41.7333 161.262 41.5999C160.928 41.2666 160.462 41.0999 159.862 41.0999C159.128 41.0999 158.428 41.3 157.762 41.7L157.062 40C157.528 39.6666 158.095 39.3666 158.762 39.0999C159.562 38.8333 160.328 38.7 161.062 38.7C162.662 38.7 163.795 39.2666 164.462 40.4Z" fill="#8CC63F"/>
<path d="M145.562 22.2L144.062 27.1C145.662 27.3667 146.962 28.0333 147.962 29.1C148.962 30.1 149.628 31.3333 149.962 32.8C150.495 34.9333 150.228 36.9333 149.162 38.8C148.028 40.8667 146.195 42.2 143.662 42.8C143.128 42.9333 142.528 43 141.862 43L138.762 38.9C138.495 40.5 137.962 41.7667 137.162 42.7L130.762 42.1C132.295 39.6333 132.862 36.7333 132.462 33.4L137.862 33.1C138.395 33.9 138.728 35.0333 138.862 36.5C139.795 36.1 140.462 35.5333 140.862 34.8C141.328 34.0667 141.495 33.3 141.362 32.5C140.962 30.9667 139.628 30.2 137.362 30.2L138.562 27.3L133.962 26.8L135.562 21.5L145.562 22.2ZM159.562 36.2L153.462 37.8C153.395 37.4 153.295 36.9333 153.162 36.4C152.428 33.2667 151.228 30.9667 149.562 29.5L153.462 27.6C154.728 28.0667 155.895 28.9333 156.962 30.2C158.162 31.6 158.962 33.1 159.362 34.7C159.495 35.1667 159.562 35.6667 159.562 36.2V36.2Z" fill="#8CC63F"/>
<path fill-rule="evenodd" clip-rule="evenodd" d="M157.462 19.7C158.162 22.5 156.462 25.3 153.662 25.9C150.862 26.6 148.062 24.9 147.362 22.1C146.662 19.3 148.462 16.5 151.262 15.8C154.062 15.1 156.862 16.9 157.462 19.7V19.7ZM154.362 20.4C154.162 19.3 153.062 18.6 151.962 18.9C150.862 19.1 150.162 20.2 150.462 21.3C150.662 22.4 151.762 23.1 152.862 22.8C153.962 22.6 154.662 21.5 154.362 20.4Z" fill="#8CC63F"/>
<path d="M184.562 23.6L181.162 27.4C182.495 28.3334 183.395 29.5 183.862 30.9C184.395 32.2334 184.528 33.6 184.262 35C183.795 37.2 182.728 38.9334 181.062 40.2001C179.128 41.6001 176.895 42.0334 174.362 41.5C173.828 41.4334 173.262 41.3 172.662 41.1L171.462 36C170.595 37.3334 169.595 38.3001 168.462 38.9001L162.862 35.7001C165.328 34.0334 167.062 31.6 168.062 28.4L173.062 30.4C173.195 31.3334 172.995 32.4667 172.462 33.8C173.528 33.8 174.428 33.5667 175.162 33.1C175.828 32.6334 176.228 32.0334 176.362 31.3C176.695 29.7 175.828 28.4334 173.762 27.5L176.062 25.4L172.062 23L175.662 18.8L184.562 23.6ZM191.562 42.1L185.362 41.1C185.495 40.7 185.595 40.2334 185.662 39.7001C186.262 36.5667 186.128 33.9667 185.262 31.9001L189.562 31.8C190.495 32.7334 191.195 34 191.662 35.6C192.195 37.3334 192.328 39 192.062 40.6C191.928 41.1334 191.762 41.6334 191.562 42.1V42.1Z" fill="#FAAF3C"/>
<path fill-rule="evenodd" clip-rule="evenodd" d="M196.462 26.1C195.862 28.9 193.162 30.8 190.362 30.3C187.562 29.7 185.662 27 186.162 24.2C186.762 21.3 189.462 19.5 192.262 20C195.162 20.6 196.962 23.3 196.462 26.1ZM193.262 25.5C193.462 24.4 192.762 23.4 191.662 23.2C190.562 22.9 189.562 23.7 189.362 24.8C189.162 25.9 189.862 26.9 190.962 27.1C192.062 27.3 193.062 26.6 193.262 25.5Z" fill="#FAAF3C"/>
<path d="M18.8618 18.2C19.4618 19.8 18.6618 21.5 17.0618 22.1C16.7285 22.2333 16.3951 22.2999 16.0618 22.2999C14.7618 22.2999 13.5618 21.5 13.1618 20.2C12.5618 18.6 13.4618 16.8999 15.0618 16.2999C15.3951 16.2333 15.7285 16.2 16.0618 16.2C17.2618 16.2 18.4618 17 18.8618 18.2V18.2Z" fill="#EC1C24"/>
<path d="M30.8618 14C31.3618 15.6 30.5618 17.4 28.9618 17.9C28.6285 18.0333 28.2952 18.1 27.9618 18.1C26.6618 18.1 25.5618 17.3 25.0618 16C24.5618 14.5 25.3618 12.7 26.9618 12.2C27.2952 12.0667 27.6285 12 27.9618 12C29.2618 12 30.3618 12.8 30.8618 14V14Z" fill="#EC1C24"/>
<path d="M28.8618 21.9L28.9618 22.4C29.8618 24.9999 28.5618 27.7 26.0618 28.6C25.5285 28.8 24.9952 28.9 24.4618 28.9C22.4618 28.9 20.5618 27.6 19.8618 25.7L19.6618 25.1C19.4618 24.5 19.7618 23.9 20.3618 23.7C20.4952 23.6333 20.6285 23.6 20.7618 23.6C21.1618 23.6 21.6618 23.9 21.7618 24.4L21.9618 24.9C22.3618 26 23.3618 26.6 24.4618 26.6C24.7285 26.6 24.9952 26.5666 25.2618 26.5C26.6618 26 27.3618 24.5 26.8618 23.2L26.6618 22.7C26.4618 22.1 26.7618 21.4 27.3618 21.2C27.4952 21.2 27.6285 21.2 27.7618 21.2C28.2618 21.2 28.6618 21.5 28.8618 21.9V21.9Z" fill="#EC1C24"/>
<path d="M48.3618 19.3C47.9618 19.4333 47.6285 19.5333 47.3618 19.6C46.1618 20.0667 45.0285 20.6 43.9618 21.2C43.7618 20.0667 43.4618 18.9667 43.0618 17.9C41.3618 13 37.7618 9 33.0618 6.7C30.3618 5.4 27.4618 4.7 24.4618 4.7C20.8618 4.7 17.2618 5.8 14.0618 7.7C10.8618 9.7 8.36182 12.5 6.66182 15.9C1.96182 25.7 6.16182 37.5 15.9618 42.3L33.6618 50.8L36.5618 44.8C36.5618 44.8 36.5952 44.8 36.6618 44.8L38.8618 51C38.8618 51 38.8618 51.0333 38.8618 51.1L35.9618 57.1C35.8952 57.1 35.8618 57.1 35.8618 57.1L13.8618 46.5C7.96182 43.7 3.56182 38.7 1.36182 32.6C-0.738181 26.4 -0.438181 19.8 2.46182 13.9C4.46182 9.6 7.66182 6.1 11.6618 3.6C15.4618 1.3 19.9618 0 24.4618 0C28.1618 0 31.7618 0.8 35.0618 2.4C41.8618 5.7 46.7618 11.8 48.3618 19.3Z" fill="#EC1C24"/>
<path fill-rule="evenodd" clip-rule="evenodd" d="M58.6618 51.9L43.7618 57.0999L38.4618 42.2C35.6618 34 39.9618 25 48.1618 22.1C49.8951 21.5 51.6285 21.2 53.3618 21.2C53.3618 21.2 53.3951 21.2 53.4618 21.2C60.0618 21.2 66.0618 25.4999 68.2618 31.7999C71.1618 39.9999 66.8618 49 58.6618 51.9V51.9ZM53.3618 25.9C52.1618 25.9 50.9618 26.1333 49.7618 26.6C46.9618 27.5 44.7618 29.5 43.4618 32.2C42.1618 34.9 41.9618 37.9 42.9618 40.7L46.6618 51.0999L57.0618 47.4C59.8618 46.5 62.0618 44.3999 63.3618 41.7999C64.6618 39.0999 64.8618 36.0999 63.8618 33.2999C62.2618 28.8999 58.0618 25.9 53.3618 25.9V25.9Z" fill="#8CC63F"/>
<path d="M52.7618 29C53.7618 29.4 54.1618 30.6 53.7618 31.6C53.3618 32.3 52.6618 32.7001 51.9618 32.7001C51.6952 32.7001 51.3952 32.6334 51.0618 32.5C50.1618 32.1 49.6618 30.9 50.1618 29.9C50.5618 29.2 51.2618 28.8 51.9618 28.8C52.2285 28.8 52.4952 28.8667 52.7618 29V29Z" fill="#8CC63F"/>
<path d="M60.1618 32.5C61.1618 33 61.5618 34.2 61.0618 35.1C60.7618 35.8 60.0618 36.3 59.2618 36.3C58.9952 36.3 58.7285 36.2334 58.4618 36.1C57.4618 35.6 57.0618 34.4001 57.5618 33.4001C57.8618 32.7001 58.5618 32.3 59.2618 32.3C59.5952 32.3 59.8952 32.3667 60.1618 32.5V32.5Z" fill="#8CC63F"/>
<path d="M49.7618 33.8C50.0618 34.1 50.0618 34.4 50.0618 34.5C49.9618 34.7 49.6618 34.8 49.1618 34.8C48.6618 34.8 47.9618 34.6 47.3618 34.3C45.9618 33.6 45.3618 32.7 45.4618 32.3C45.5618 32.2 45.8618 32.1 46.3618 32.1C46.8618 32.1 47.5618 32.2 48.1618 32.6C48.8618 32.9 49.4618 33.3 49.7618 33.8Z" fill="#FAAF3C"/>
<path d="M61.8618 39.6C62.1618 40 62.1618 40.2 62.1618 40.4C62.0618 40.5 61.7618 40.6 61.2618 40.6C60.7618 40.6 60.0618 40.5 59.4618 40.1C58.0618 39.5 57.4618 38.5 57.5618 38.2C57.6618 38 57.9618 37.9 58.4618 37.9C58.9618 37.9 59.6618 38.1 60.2618 38.4C60.9618 38.7 61.5618 39.1 61.8618 39.6V39.6Z" fill="#FAAF3C"/>
<path d="M52.2618 39.6C50.6618 38.9 50.0618 37 50.7618 35.4L50.9618 35.1C51.0618 34.7 51.5618 34.6 51.8618 34.8C52.2618 34.9 52.3618 35.4 52.2618 35.7L52.0618 36.1C51.6618 36.9 52.0618 37.9 52.8618 38.3C53.6618 38.7 54.6618 38.3 55.0618 37.5L55.2618 37.2C55.3618 36.8 55.8618 36.7 56.1618 36.8C56.5618 37 56.7618 37.5 56.5618 37.8L56.3618 38.1C55.6618 39.7 53.7618 40.3 52.2618 39.6V39.6Z" fill="#8CC63F"/>
<path d="M62.5618 14.5C63.2618 16.2 62.4618 18.1 60.7618 18.8C59.1618 19.5 57.2618 18.7 56.5618 17.1C55.8618 15.4 56.5618 13.5 58.2618 12.8C59.9618 12.1 61.8618 12.9 62.5618 14.5Z" fill="#FAAF3C"/>
<path d="M67.5618 19.3C67.9618 20.2 67.5618 21.2 66.6618 21.6C65.7618 22 64.6618 21.6 64.2618 20.7C63.9618 19.8 64.3618 18.7 65.2618 18.4C66.1618 18 67.1618 18.4 67.5618 19.3V19.3Z" fill="#FAAF3C"/>
<path d="M70.4618 23.5C70.7618 24.1 70.4618 24.8 69.8618 25.1C69.1618 25.3 68.4618 25.1 68.2618 24.4C67.9618 23.8 68.2618 23.1 68.8618 22.8C69.4618 22.6 70.1618 22.9 70.4618 23.5Z" fill="#FAAF3C"/>
</svg>
