<svg viewBox="0 0 43 52" fill="none" xmlns="http://www.w3.org/2000/svg">
<path d="M0.00525679 21.775C-0.315489 35.1 14.1212 43.225 21.5001 52C28.8789 43.225 43.3155 35.1 42.9947 21.775C42.9947 9.92855 32.087 0 21.5001 0C10.9131 0 0.00525679 9.92855 0.00525679 21.775Z" fill="#FFA7D1"/>
<path d="M6.00379 22.9125C5.77255 32.65 16.1804 38.5875 21.5 45C26.8197 38.5875 37.2274 32.65 36.9962 22.9125C36.9962 14.2555 29.1325 7 21.5 7C13.8676 7 6.00379 14.2555 6.00379 22.9125Z" fill="white"/>
<path d="M18 15.5C18 16.6046 17.1046 17.5 16 17.5C14.8954 17.5 14 16.6046 14 15.5C14 14.3954 14.8954 13.5 16 13.5C17.1046 13.5 18 14.3954 18 15.5Z" fill="#FFA7D1" stroke="#FFA7D1"/>
<path d="M29.5 15.5C29.5 16.6046 28.6046 17.5 27.5 17.5C26.3954 17.5 25.5 16.6046 25.5 15.5C25.5 14.3954 26.3954 13.5 27.5 13.5C28.6046 13.5 29.5 14.3954 29.5 15.5Z" fill="#FFA7D1" stroke="#FFA7D1"/>
<path d="M25.5 20C25.5 22.2091 23.7091 24 21.5 24C19.2909 24 17.5 22.2091 17.5 20L21.5 20L25.5 20Z" fill="#FFA7D1"/>
<ellipse cx="13" cy="20.5" rx="2" ry="1.5" fill="#FCCADC"/>
<ellipse cx="30" cy="20.5" rx="2" ry="1.5" fill="#FCCADC"/>
</svg>
