<svg width="267" height="82" viewBox="0 0 267 82" fill="none" xmlns="http://www.w3.org/2000/svg">
<path fill-rule="evenodd" clip-rule="evenodd" d="M82.6057 73.5824L60.0618 81.31L52.0429 59.1675C47.8064 46.9817 54.3124 33.607 66.7191 29.2974C69.3416 28.4058 71.9642 27.96 74.5868 27.96C74.5868 27.96 74.6372 27.96 74.7381 27.96C84.7239 27.96 93.802 34.3501 97.1306 43.7123C101.518 55.8981 95.0124 69.2728 82.6057 73.5824Z" fill="white"/>
<path d="M56.7334 72.775C62.2652 61.0003 56.7334 72.6326 56.7334 72.6326L70.48 27.4864C68.1648 16.8052 61.0744 8.11776 51.2348 3.418C46.4596 1.13933 41.2504 0 35.8965 0C29.3849 0 22.8734 1.85142 17.3748 5.12701C11.5867 8.68743 6.95629 13.672 4.06227 19.7959C-0.134052 28.1985 -0.568155 37.598 2.47056 46.4279C5.65399 55.1153 12.0208 62.2361 20.5582 66.2238L52.3924 81.32H52.5371L56.7334 72.775Z" fill="white"/>
<path d="M88.6875 21.0639C90.1042 24.5112 88.4852 28.3641 85.0447 29.7836C81.8066 31.2031 77.9613 29.5808 76.5446 26.3363C75.128 22.889 76.5446 19.0361 79.9851 17.6166C83.4256 16.1971 87.2709 17.8194 88.6875 21.0639Z" fill="white"/>
<path d="M94.8511 27.7044C95.7516 29.7556 94.8511 32.0348 92.825 32.9464C90.7988 33.8581 88.3224 32.9464 87.4219 30.8952C86.7465 28.844 87.6471 26.3369 89.6732 25.6532C91.6993 24.7415 93.9506 25.6532 94.8511 27.7044V27.7044Z" fill="white"/>
<path d="M98.7621 33.5894C99.6244 35.3141 98.762 37.3263 97.0375 38.1886C95.0255 38.7635 93.0135 38.1886 92.4386 36.1765C91.5763 34.4518 92.4386 32.4396 94.1632 31.5773C95.8878 31.0024 97.8998 31.8647 98.7621 33.5894Z" fill="white"/>
<path d="M167.582 41.5693C165.665 43.9614 163.597 46.2538 161.378 48.4465C162.387 52.0347 162.336 55.9218 161.227 60.108C159.915 65.1911 157.999 68.8789 155.477 71.1713L136.5 63.5C137.642 62.3714 137.441 62.6017 138.5 61.5C133.387 63.5361 127.686 64.4934 119.919 62.5C115.278 61.304 111.748 59.0614 109.327 55.7723C106.805 52.1842 106.099 48.297 107.209 44.1109C108.318 39.9247 110.941 35.4183 115.077 32.6275C118.14 30.5158 121.495 29.1849 125.299 28.6203L125.299 28.6203L115.682 26.6999L119.011 11.2197L133.383 15.0781C133.585 14.3804 133.989 13.2342 134.594 11.6395L150.918 17.1141C150.514 17.9115 150.111 18.8584 149.707 19.9547L169.7 25.5722L166.389 37.4747L161.012 36.1897L167.582 41.5693Z" fill="white"/>
<path d="M175.672 54.1276C176.477 55.3799 176.88 56.7461 176.88 58.2262C176.88 60.2755 176.132 62.2679 174.637 64.2034C173.026 66.025 170.264 67.2205 167.963 67.7897L161.694 62.4995C162.96 61.8164 163.587 61.6079 164.5 60.9995C166 59.9995 166 59.4995 166 59.4995C166 58.8164 165.845 58.8411 165.5 58.4995C164.5 57.9995 163.5 58.4995 163.5 58.4995C163.5 58.4995 162.226 58.9749 160.5 59.9995L157.38 53.2737C158.53 52.4767 159.968 51.7367 161.694 51.0536C163.535 50.4843 165.375 50.1997 167.216 50.1997C171.128 50.1997 173.946 51.509 175.672 54.1276Z" fill="white"/>
<path d="M223.314 55.6616C223.905 56.5021 224.2 57.4627 224.2 58.5434C224.2 60.1044 223.668 61.6053 222.605 63.0463C221.424 64.3671 220.006 65.2677 218.352 65.748L213.5 61C214.676 60.5 215 60.5 215.717 60C216.054 59.7645 216.5 59.5 216.5 59C216.5 58.5 215.9 58.5 215.5 58.5C215.26 58.5 214.967 58.6376 214.676 58.7417C214.385 58.8458 213.115 59.2622 212.074 59.7827L210.2 54.9411C211.027 54.3407 212.031 53.8004 213.213 53.3201C214.63 52.8398 215.989 52.5996 217.289 52.5996C220.124 52.5996 222.132 53.6203 223.314 55.6616Z" fill="white"/>
<path d="M199.581 29.8517L197 38.1395C199.394 38.54 199.003 37.8979 200.5 39.5C201.997 41.0019 204.198 44.2856 204.697 46.4884C205.495 49.6926 205.096 52.6964 203.5 55.5C201.804 58.604 198.791 60.5989 195 61.5C194.202 61.7003 191.589 61.7198 190.591 61.7198L188.5 58.5C188 60 187.303 60.8056 186.106 62.2074L173.98 60.3681C176.275 56.6633 177.123 50.0005 176.524 44.9941L187.752 44.5C188.55 45.7015 188.8 44.7972 189 47C190.397 46.3992 187.153 50.0559 187.752 48.9544C188.45 47.853 188.7 46.7015 188.5 45.5C187.752 45 186.392 44.5 183 44.5L184.605 40.5L177.721 39.749L181.5 28.5L199.581 29.8517ZM217 52.5L205.5 55.5C205.4 54.8993 205.251 54.1984 205.051 53.3973C203.954 48.6913 201 41 200.5 39.5L206.5 36.5C208.396 37.2009 212.093 40.0926 213.689 41.995C215.485 44.0978 216.682 46.3507 217.281 48.7537C217.48 49.4547 217.5 51.5 217 52.5Z" fill="white"/>
<path fill-rule="evenodd" clip-rule="evenodd" d="M214.228 28.5061C215.438 33.3481 212.498 38.1902 207.656 39.2278C202.814 40.4383 197.972 37.4985 196.762 32.6564C195.551 27.8144 198.664 22.9723 203.506 21.7618C208.348 20.5513 213.19 23.6641 214.228 28.5061ZM208.867 29.7166C208.521 27.8144 206.619 26.6039 204.717 27.1227C202.814 27.4685 201.604 29.3707 202.123 31.273C202.469 33.1752 204.371 34.3857 206.273 33.8669C208.175 33.5211 209.386 31.6188 208.867 29.7166Z" fill="white"/>
<path d="M251 33.5L246.5 39C248.5 41 249.222 42.0126 250 44C250.778 45.9874 250.513 47.9132 250.124 50C249.443 53.2792 247.886 55.8629 245.454 57.7509C242.634 59.8377 237.696 60.795 234 60C233 59.7849 231.5 58.9999 231 58.9999L230 54.4999C229 55.4999 228.654 55.6056 227 56.4999L216.5 49.9999C220.099 47.5156 224.041 43.2697 225.5 38.4999L234.692 41.8228C234.887 43.214 235.278 44.0125 234.5 45.9999C234.692 45.8952 235 45.9999 235.5 45.4999C236 44.9999 235.898 44.4999 236 43.9999C236.486 41.615 232.8 40.3624 231.3 39.8624L234 36.9999L228.384 33.7001L235.898 25.0455L251 33.5ZM259.316 60.5297L246.646 58.8901C246.84 58.2939 246.986 57.5983 247.084 56.8033C247.959 52.1329 247.265 46.0805 246 43H255.898C257.259 44.3912 258.781 48.4562 259.462 50.8411C260.24 53.4247 260.434 55.909 260.045 58.2939C259.851 59.0888 259.608 59.8341 259.316 60.5297Z" fill="white"/>
<path fill-rule="evenodd" clip-rule="evenodd" d="M266.057 37.7367C265.025 42.5537 260.38 45.8223 255.563 44.9621C250.746 43.9299 247.477 39.285 248.337 34.4681C249.37 29.4791 254.015 26.3825 258.832 27.2426C263.82 28.2748 266.917 32.9198 266.057 37.7367ZM260.552 36.7045C260.896 34.8121 259.692 33.0918 257.799 32.7477C255.907 32.2316 254.187 33.6079 253.843 35.5003C253.498 37.3926 254.703 39.113 256.595 39.457C258.487 39.8011 260.208 38.5969 260.552 36.7045Z" fill="white"/>
<path fill-rule="evenodd" clip-rule="evenodd" d="M163.353 40.9885C161.678 43.099 159.87 45.1215 157.929 47.0561C158.811 50.2218 158.767 53.6514 157.797 57.3447C156.651 61.8294 154.975 65.0831 152.77 67.1056L140.6 62.2252C142.188 60.6423 143.422 58.6637 144.304 56.2894C136.014 60.1586 128.474 61.2139 121.683 59.4552C117.627 58.3999 114.54 56.4214 112.423 53.5195C110.219 50.3537 109.601 46.9242 110.571 43.2309C111.541 39.5376 113.834 36.4598 117.45 33.9976C121.242 31.3595 125.74 30.0844 130.943 30.1724C131.208 29.2051 131.472 28.2378 131.737 27.2705L118.773 24.5005L120.89 14.2119L134.515 18.169C134.691 17.5535 135.044 16.5422 135.573 15.1352L146.817 18.8286C146.465 19.5321 146.112 20.3675 145.759 21.3348L165.205 26.8747L163.221 34.3933L142.452 29.7766C142.099 30.5681 141.791 31.3595 141.526 32.1509C145.847 33.7338 149.331 35.7123 151.977 38.0866C153.299 36.8555 154.49 35.5804 155.548 34.2614L163.353 40.9885ZM128.562 47.7157C128.65 44.9896 128.871 42.0877 129.224 39.01C126.842 39.7134 125.387 40.9885 124.858 42.8352C124.682 43.4507 124.726 44.1103 124.99 44.8138C125.608 46.2207 126.798 47.188 128.562 47.7157ZM143.246 44.418C142.276 42.9231 140.953 41.736 139.277 40.8566C138.924 42.7912 138.616 44.7258 138.351 46.6604C139.939 46.0449 141.57 45.2974 143.246 44.418V44.418Z" fill="#EC1C24"/>
<path d="M173.407 55.234C174.024 56.2013 174.333 57.2565 174.333 58.3997C174.333 59.9826 173.76 61.5214 172.613 63.0164C171.378 64.4233 169.879 65.3467 168.115 65.7864L164.544 62.7526C165.514 62.2249 166.263 61.6094 166.792 60.9059C167.41 60.2024 167.718 59.4989 167.718 58.7954C167.718 58.2678 167.586 57.8721 167.322 57.6083C166.704 56.9048 165.822 56.553 164.676 56.553C163.353 56.553 162.03 56.9488 160.707 57.7402L159.385 54.5745C160.266 53.9589 161.369 53.3873 162.692 52.8597C164.103 52.42 165.514 52.2002 166.925 52.2002C169.923 52.2002 172.084 53.2115 173.407 55.234V55.234Z" fill="#EC1C24"/>
<path d="M221.559 56.2893C222 56.9048 222.22 57.6083 222.22 58.3997C222.22 59.5429 221.823 60.6421 221.029 61.6973C220.148 62.6646 219.089 63.3242 217.855 63.6759L215.341 61.4335C216.047 61.1697 216.576 60.774 216.929 60.2464C217.37 59.7188 217.59 59.1912 217.59 58.6635C217.59 58.3118 217.502 58.048 217.326 57.8721C216.885 57.4324 216.267 57.2126 215.474 57.2126C214.503 57.2126 213.577 57.4764 212.696 58.004L211.77 55.7616C212.387 55.322 213.136 54.9262 214.018 54.5745C215.077 54.2227 216.091 54.0469 217.061 54.0469C219.178 54.0469 220.677 54.7943 221.559 56.2893Z" fill="#8CC63F"/>
<path d="M196.557 32.2827L194.572 38.746C196.689 39.0978 198.409 39.9771 199.732 41.3841C201.054 42.7032 201.936 44.33 202.377 46.2646C203.083 49.0785 202.73 51.7166 201.319 54.1789C199.82 56.9049 197.395 58.6636 194.043 59.455C193.338 59.6309 192.544 59.7188 191.662 59.7188L187.561 54.3108C187.209 56.4212 186.503 58.092 185.445 59.3231L176.979 58.5317C179.007 55.2781 179.757 51.4528 179.227 47.056L186.371 46.6603C187.076 47.7155 187.517 49.2104 187.694 51.145C188.928 50.6174 189.81 49.87 190.339 48.9027C190.957 47.9354 191.177 46.9241 191.001 45.8689C190.472 43.8463 188.708 42.8351 185.709 42.8351L187.297 39.0098L181.212 38.3503L183.328 31.3594L196.557 32.2827ZM215.077 50.7493L207.007 52.8598C206.919 52.3322 206.787 51.7166 206.61 51.0131C205.64 46.8801 204.053 43.8463 201.848 41.9117L207.007 39.4055C208.683 40.0211 210.226 41.1643 211.637 42.8351C213.225 44.6817 214.283 46.6603 214.812 48.7708C214.988 49.3863 215.077 50.0458 215.077 50.7493V50.7493Z" fill="#8CC63F"/>
<path fill-rule="evenodd" clip-rule="evenodd" d="M212.299 28.9851C213.225 32.6784 210.976 36.3717 207.272 37.1632C203.568 38.0865 199.864 35.8441 198.938 32.1508C198.012 28.4575 200.393 24.7641 204.097 23.8408C207.801 22.9175 211.505 25.2918 212.299 28.9851V28.9851ZM208.198 29.9084C207.933 28.4575 206.478 27.5341 205.023 27.9299C203.568 28.1937 202.642 29.6446 203.039 31.0956C203.303 32.5465 204.758 33.4698 206.214 33.0741C207.669 32.8103 208.595 31.3594 208.198 29.9084Z" fill="#8CC63F"/>
<path d="M248.148 34.1293L243.65 39.1416C245.414 40.3727 246.605 41.9116 247.222 43.7583C247.928 45.517 248.104 47.3197 247.751 49.1664C247.134 52.0683 245.723 54.3546 243.518 56.0254C240.961 57.8721 238.006 58.4437 234.655 57.7402C233.949 57.6522 233.2 57.4764 232.406 57.2126L230.819 50.4854C229.672 52.2442 228.349 53.5192 226.85 54.3107L219.442 50.0897C222.705 47.8913 224.998 44.6816 226.321 40.4607L232.935 43.0988C233.112 44.3299 232.847 45.8248 232.142 47.5835C233.553 47.5835 234.743 47.2757 235.713 46.6602C236.595 46.0446 237.124 45.2532 237.301 44.2859C237.742 42.1754 236.595 40.5047 233.861 39.2735L236.904 36.5035L231.612 33.3378L236.375 27.7979L248.148 34.1293ZM257.408 58.5316L249.206 57.2126C249.383 56.6849 249.515 56.0694 249.603 55.3659C250.397 51.2329 250.221 47.8034 249.074 45.0773L254.762 44.9454C255.997 46.1765 256.923 47.8473 257.54 49.9578C258.246 52.2442 258.422 54.4426 258.069 56.553C257.893 57.2565 257.673 57.916 257.408 58.5316V58.5316Z" fill="#FAAF3C"/>
<path fill-rule="evenodd" clip-rule="evenodd" d="M263.89 37.4268C263.096 41.1202 259.525 43.6263 255.821 42.9668C252.117 42.1754 249.603 38.614 250.265 34.9206C251.058 31.0954 254.63 28.7211 258.334 29.3807C262.17 30.1721 264.551 33.7335 263.89 37.4268ZM259.657 36.6354C259.921 35.1844 258.995 33.8654 257.54 33.6016C256.085 33.2059 254.762 34.2611 254.498 35.7121C254.233 37.163 255.159 38.4821 256.614 38.7459C258.069 39.0097 259.392 38.0863 259.657 36.6354Z" fill="#FAAF3C"/>
<path d="M28.9514 27.0067C29.7451 29.1172 28.6868 31.3596 26.5703 32.151C26.1293 32.3269 25.6884 32.4148 25.2474 32.4148C23.5277 32.4148 21.9403 31.3596 21.4112 29.6448C20.6174 27.5344 21.808 25.292 23.9246 24.5006C24.3655 24.4126 24.8065 24.3687 25.2474 24.3687C26.8349 24.3687 28.4223 25.4239 28.9514 27.0067V27.0067Z" fill="#EC1C24"/>
<path d="M44.8256 21.4667C45.487 23.5772 44.4287 25.9515 42.3122 26.611C41.8712 26.7868 41.4303 26.8748 40.9893 26.8748C39.2696 26.8748 37.8145 25.8196 37.1531 24.1048C36.4916 22.1262 37.5499 19.7519 39.6665 19.0924C40.1074 18.9165 40.5484 18.8286 40.9893 18.8286C42.709 18.8286 44.1642 19.8838 44.8256 21.4667V21.4667Z" fill="#EC1C24"/>
<path d="M42.1798 31.8872L42.3121 32.5467C43.5027 35.9762 41.783 39.5377 38.4759 40.7248C37.7703 40.9886 37.0648 41.1205 36.3593 41.1205C33.7136 41.1205 31.2002 39.4058 30.2742 36.8996L30.0096 36.1081C29.745 35.3167 30.1419 34.5253 30.9356 34.2615C31.112 34.1735 31.2884 34.1296 31.4647 34.1296C31.9939 34.1296 32.6553 34.5253 32.7876 35.1848L33.0522 35.8443C33.5813 37.2953 34.9042 38.0867 36.3593 38.0867C36.7121 38.0867 37.0648 38.0427 37.4176 37.9548C39.2696 37.2953 40.1956 35.3167 39.5341 33.602L39.2696 32.9424C39.005 32.151 39.4019 31.2277 40.1956 30.9639C40.372 30.9639 40.5483 30.9639 40.7247 30.9639C41.3861 30.9639 41.9153 31.3596 42.1798 31.8872V31.8872Z" fill="#EC1C24"/>
<path d="M67.9756 28.4576C67.4464 28.6334 67.0055 28.7653 66.6527 28.8533C65.0653 29.4688 63.566 30.1723 62.155 30.9638C61.8904 29.4688 61.4936 28.0179 60.9644 26.6109C58.7156 20.1476 53.9533 14.8714 47.7359 11.8376C44.1642 10.1228 40.3279 9.19951 36.3594 9.19951C31.5971 9.19951 26.8348 10.6505 22.6017 13.1566C18.3686 15.7947 15.0615 19.4881 12.8126 23.9728C6.5952 36.8995 12.1512 52.4642 25.1151 58.7956L48.5296 70.0075L52.3659 62.0932C52.3659 62.0932 52.41 62.0932 52.4982 62.0932L55.4085 70.2713C55.4085 70.2713 55.4085 70.3153 55.4085 70.4032L51.5722 78.3175C51.484 78.3175 51.4399 78.3175 51.4399 78.3175L22.3371 64.3356C14.5323 60.6423 8.71176 54.047 5.80149 46.0009C3.0235 37.8228 3.42035 29.1171 7.25662 21.3347C9.90233 15.6628 14.1355 11.0462 19.4269 7.74856C24.4537 4.71476 30.4065 3 36.3594 3C41.2539 3 46.0162 4.05524 50.3816 6.16571C59.377 10.5186 65.859 18.5647 67.9756 28.4576Z" fill="#EC1C24"/>
<path fill-rule="evenodd" clip-rule="evenodd" d="M81.601 71.4586L61.8905 78.3176L54.8794 58.6638C51.1754 47.8476 56.8637 35.9762 67.7111 32.151C70.004 31.3596 72.297 30.9639 74.5899 30.9639C74.5899 30.9639 74.634 30.9639 74.7222 30.9639C83.453 30.9639 91.3901 36.6358 94.3004 44.9457C98.1367 55.7619 92.4484 67.6333 81.601 71.4586V71.4586ZM74.5899 37.1634C73.0025 37.1634 71.4151 37.4712 69.8276 38.0867C66.1236 39.2739 63.2134 41.9119 61.4937 45.4734C59.774 49.0348 59.5094 52.9919 60.8322 56.6852L65.7268 70.4033L79.4845 65.5228C83.1885 64.3357 86.0987 61.5657 87.8184 58.1362C89.5381 54.5748 89.8027 50.6176 88.4799 46.9243C86.3633 41.1205 80.8073 37.1634 74.5899 37.1634V37.1634Z" fill="#8CC63F"/>
<path d="M73.7962 41.2521C75.1191 41.7797 75.6482 43.3626 75.1191 44.6816C74.5899 45.6049 73.6639 46.1326 72.7379 46.1326C72.3852 46.1326 71.9883 46.0446 71.5474 45.8687C70.3568 45.3411 69.6954 43.7583 70.3568 42.4392C70.886 41.5159 71.8119 40.9883 72.7379 40.9883C73.0907 40.9883 73.4435 41.0762 73.7962 41.2521V41.2521Z" fill="#8CC63F"/>
<path d="M83.5852 45.8688C84.9081 46.5283 85.4372 48.1112 84.7758 49.2983C84.379 50.2216 83.453 50.8812 82.3947 50.8812C82.0419 50.8812 81.6892 50.7932 81.3364 50.6174C80.0135 49.9578 79.4844 48.375 80.1458 47.0559C80.5427 46.1326 81.4687 45.605 82.3947 45.605C82.8356 45.605 83.2325 45.6929 83.5852 45.8688V45.8688Z" fill="#8CC63F"/>
<path d="M69.8276 47.5837C70.2245 47.9794 70.2245 48.3751 70.2245 48.507C70.0922 48.7708 69.6954 48.9027 69.0339 48.9027C68.3725 48.9027 67.4465 48.6389 66.6528 48.2432C64.8008 47.3199 64.0071 46.1327 64.1394 45.6051C64.2717 45.4732 64.6685 45.3413 65.3299 45.3413C65.9914 45.3413 66.9174 45.4732 67.7111 46.0008C68.6371 46.3965 69.4308 46.9242 69.8276 47.5837Z" fill="#FAAF3C"/>
<path d="M85.834 55.2341C86.2308 55.7617 86.2308 56.0255 86.2308 56.2893C86.0985 56.4212 85.7017 56.5531 85.0403 56.5531C84.3788 56.5531 83.4528 56.4212 82.6591 55.8936C80.8071 55.1022 80.0134 53.7831 80.1457 53.3874C80.278 53.1236 80.6749 52.9917 81.3363 52.9917C81.9977 52.9917 82.9237 53.2555 83.7174 53.6512C84.6434 54.0469 85.4371 54.5745 85.834 55.2341V55.2341Z" fill="#FAAF3C"/>
<path d="M73.1347 55.2343C71.0181 54.311 70.2244 51.8048 71.1504 49.6943L71.415 49.2986C71.5473 48.771 72.2087 48.6391 72.6055 48.9029C73.1347 49.0348 73.267 49.6943 73.1347 50.09L72.8701 50.6177C72.341 51.6729 72.8701 52.9919 73.9284 53.5196C74.9867 54.0472 76.3095 53.5196 76.8387 52.4643L77.1032 52.0686C77.2355 51.541 77.897 51.4091 78.2938 51.541C78.8229 51.8048 79.0875 52.4643 78.823 52.86L78.5584 53.2557C77.6324 55.3662 75.119 56.1576 73.1347 55.2343V55.2343Z" fill="#8CC63F"/>
<path d="M86.7602 22.1262C87.6862 24.3686 86.6279 26.8748 84.379 27.7981C82.2625 28.7214 79.749 27.6662 78.823 25.5557C77.897 23.3133 78.823 20.8072 81.0719 19.8838C83.3207 18.9605 85.8342 20.0157 86.7602 22.1262Z" fill="#FAAF3C"/>
<path d="M93.3744 28.4576C93.9035 29.6447 93.3744 30.9638 92.1838 31.4914C90.9932 32.019 89.5381 31.4914 89.009 30.3042C88.6121 29.1171 89.1412 27.6662 90.3318 27.2704C91.5224 26.7428 92.8452 27.2704 93.3744 28.4576V28.4576Z" fill="#FAAF3C"/>
<path d="M97.2105 33.9974C97.6074 34.7888 97.2105 35.7122 96.4168 36.1079C95.4908 36.3717 94.5648 36.1079 94.3002 35.1845C93.9034 34.3931 94.3002 33.4698 95.0939 33.0741C95.8876 32.8103 96.8136 33.206 97.2105 33.9974Z" fill="#FAAF3C"/>
</svg>
