<svg width="87" height="70" viewBox="0 0 87 70" fill="none" xmlns="http://www.w3.org/2000/svg">
<path d="M39.375 1.87566C39.375 1.18427 38.9941 0.55148 38.3848 0.223363C37.7754 -0.104753 37.0371 -0.0695972 36.457 0.317111L30.832 4.06701C29.9707 4.64121 29.7422 5.80134 30.3164 6.6685C30.8906 7.53567 32.0566 7.76417 32.918 7.18997L35.625 5.37947V22.5001H31.875C30.8379 22.5001 30 23.338 30 24.3751C30 25.4121 30.8379 26.25 31.875 26.25H43.125C44.1621 26.25 45 25.4121 45 24.3751C45 23.338 44.1621 22.5001 43.125 22.5001H39.375V1.87566Z" fill="#449B00"/>
<g clip-path="url(#clip0_500_871)">
<path d="M41.153 51.6732C39.3381 51.6732 37.8672 50.1985 37.8672 48.3789C37.8672 46.5593 39.3381 45.0846 41.153 45.0846C42.9678 45.0846 44.4387 46.5593 44.4387 48.3789C44.4387 50.1985 42.9678 51.6732 41.153 51.6732ZM41.153 61.556C42.9678 61.556 44.4387 63.0307 44.4387 64.8503C44.4387 66.6698 42.9678 68.1445 41.153 68.1445C39.3381 68.1445 37.8672 66.6698 37.8672 64.8503C37.8672 63.0307 39.3381 61.556 41.153 61.556ZM51.0101 59.0853H31.2958C30.3886 59.0853 29.653 58.3477 29.653 57.4381V55.791C29.653 54.8815 30.3886 54.1439 31.2958 54.1439H51.0101C51.9173 54.1439 52.653 54.8815 52.653 55.791V57.4381C52.653 58.3477 51.9173 59.0853 51.0101 59.0853Z" fill="#449B00"/>
</g>
<path d="M2.47605 58.253C2.63792 58.2897 2.80548 58.2938 2.96895 58.265C3.13242 58.2363 3.28852 58.1752 3.42815 58.0855C3.56779 57.9957 3.68815 57.8791 3.78222 57.7424C3.87628 57.6056 3.94218 57.4515 3.97605 57.289C4.06838 57.0095 4.20994 56.7487 4.39405 56.519C4.70805 56.129 5.26905 55.684 6.36605 55.684C7.39805 55.684 8.11905 56.021 8.53605 56.469C8.93505 56.898 9.18505 57.567 9.01805 58.539C8.93305 59.029 8.69205 59.319 8.19005 59.599C7.75405 59.842 7.26705 60.005 6.64905 60.211C6.40005 60.294 6.13005 60.384 5.83405 60.489C4.90605 60.819 3.78905 61.285 2.92205 62.199C2.01005 63.162 1.50005 64.477 1.50005 66.25C1.50005 66.5815 1.63174 66.8995 1.86616 67.1339C2.10058 67.3683 2.41853 67.5 2.75005 67.5H10.25C10.5816 67.5 10.8995 67.3683 11.1339 67.1339C11.3684 66.8995 11.5 66.5815 11.5 66.25C11.5 65.9185 11.3684 65.6005 11.1339 65.3661C10.8995 65.1317 10.5816 65 10.25 65H4.14705C4.28405 64.502 4.50105 64.167 4.73605 63.92C5.17205 63.46 5.80605 63.152 6.67005 62.845C6.84505 62.783 7.03905 62.718 7.24405 62.65C7.93205 62.422 8.74905 62.15 9.40805 61.783C10.375 61.243 11.236 60.393 11.482 58.963C11.762 57.334 11.37 55.845 10.366 54.766C9.37905 53.705 7.93505 53.184 6.36605 53.184C4.43005 53.184 3.18305 54.038 2.44805 54.948C2.06419 55.4256 1.77194 55.9701 1.58605 56.554C1.56778 56.6125 1.5511 56.6716 1.53605 56.731L1.53305 56.747L1.53105 56.754V56.759C1.45105 57.109 1.53005 56.761 1.53105 56.759C1.45854 57.0823 1.51734 57.4221 1.69454 57.7021C1.87174 57.982 2.15283 58.1802 2.47605 58.253Z" fill="#449B00"/>
<path d="M16.2723 31.7788C16.1206 31.8417 15.9828 31.9338 15.8667 32.0499C15.7506 32.166 15.6585 32.3038 15.5956 32.4555C15.5328 32.6071 15.5005 32.7697 15.5005 32.9339C15.5005 33.0981 15.5328 33.2606 15.5956 33.4123C15.6585 33.564 15.7506 33.7018 15.8667 33.8179L17.2327 35.1839L15.8667 36.5499C15.6322 36.7843 15.5005 37.1023 15.5005 37.4339C15.5005 37.7655 15.6322 38.0834 15.8667 38.3179C16.1011 38.5523 16.4191 38.6841 16.7507 38.6841C17.0823 38.6841 17.4002 38.5523 17.6347 38.3179L19.0007 36.9519L20.3667 38.3179C20.6011 38.5523 20.9191 38.6841 21.2507 38.6841C21.5823 38.6841 21.9002 38.5523 22.1347 38.3179C22.3691 38.0834 22.5008 37.7655 22.5008 37.4339C22.5008 37.1023 22.3691 36.7843 22.1347 36.5499L20.7687 35.1839L22.1347 33.8179C22.2508 33.7018 22.3429 33.564 22.4057 33.4123C22.4685 33.2606 22.5008 33.0981 22.5008 32.9339C22.5008 32.7697 22.4685 32.6071 22.4057 32.4555C22.3429 32.3038 22.2508 32.166 22.1347 32.0499C22.0186 31.9338 21.8808 31.8417 21.7291 31.7789C21.5774 31.7161 21.4149 31.6837 21.2507 31.6837C21.0865 31.6837 20.9239 31.7161 20.7723 31.7789C20.6206 31.8417 20.4828 31.9338 20.3667 32.0499L19.0007 33.4169L17.6347 32.0499C17.5186 31.9338 17.3808 31.8417 17.2291 31.7788C17.0774 31.716 16.9149 31.6837 16.7507 31.6837C16.5865 31.6837 16.4239 31.716 16.2723 31.7788Z" fill="#449B00"/>
<path d="M64.6586 17.1994C64.6586 15.9829 65.6415 15 66.8581 15H83.3537C84.261 15 85.072 15.5567 85.4019 16.4021C85.7318 17.2475 85.505 18.2098 84.8383 18.8215L75.8138 27.0968H77.3053C82.4671 27.0968 86.6528 31.2826 86.6528 36.4443C86.6528 41.6061 82.4671 45.7919 77.3053 45.7919H71.903C68.9888 45.7919 66.322 44.1423 65.0161 41.5374L64.8855 41.2762C64.3425 40.1902 64.7824 38.8706 65.8683 38.3276C66.9543 37.7846 68.2739 38.2245 68.8169 39.3104L68.9475 39.5716C69.5042 40.692 70.6521 41.393 71.8961 41.393H77.3053C80.0408 41.393 82.254 39.1799 82.254 36.4443C82.254 33.7088 80.0408 31.4956 77.3053 31.4956H70.1572C69.2499 31.4956 68.4389 30.9389 68.109 30.0935C67.7791 29.2481 68.0059 28.2859 68.6726 27.6741L77.6971 19.3988H66.8581C65.6415 19.3988 64.6586 18.416 64.6586 17.1994Z" fill="#449B00"/>
<defs>
<clipPath id="clip0_500_871">
<rect width="23" height="26.3542" fill="white" transform="matrix(1 0 0 -1 29.653 69.7917)"/>
</clipPath>
</defs>
</svg>
