<svg viewBox="0 0 321 2496" fill="none" xmlns="http://www.w3.org/2000/svg">
<path d="M320 89.1195C195.032 89.1195 124.968 89.1195 0 89.1195C-8.02353e-10 77.1544 101.021 4.95109 112.366 2.75757e-05C124 -1.98823e-06 196 -1.57566e-05 205.191 2.75757e-05C217.392 4.95111 320 80.4551 320 89.1195Z" fill="#aad370"/>
<path d="M0 89.1195C124.968 89.1195 195.032 89.1195 320 89.1195C320 98.609 216.845 173.336 205.5 178.287C192.867 178.287 127.192 178.239 112.5 178.239C100.299 173.288 0 100.259 0 89.1195Z" fill="#bce462"/>
<path d="M320 623.406C195.032 623.406 124.968 623.406 0 623.406C-8.02353e-10 611.441 101.021 539.238 112.366 534.287C124 534.287 196 534.287 205.191 534.287C217.392 539.238 320 614.742 320 623.406Z" fill="#aad370"/>
<path d="M0 623.406C124.968 623.406 195.032 623.406 320 623.406C320 632.896 216.845 707.622 205.5 712.573C192.867 712.573 127.192 712.525 112.5 712.525C100.299 707.574 0 634.546 0 623.406Z" fill="#bce462"/>
<path d="M320.134 1157.96C195.166 1157.96 125.101 1157.96 0.133545 1157.96C0.133545 1145.99 101.155 1073.79 112.5 1068.84C124.134 1068.84 196.134 1068.84 205.324 1068.84C217.526 1073.79 320.134 1149.29 320.134 1157.96Z" fill="#aad370"/>
<path d="M0.133545 1157.96C125.101 1157.96 195.166 1157.96 320.134 1157.96C320.134 1167.45 216.845 1242.31 205.5 1247.26C192.867 1247.26 127.192 1247.21 112.5 1247.21C100.299 1242.26 0.133545 1169.1 0.133545 1157.96Z" fill="#bce462"/>
<path d="M320 1692.92C195.032 1692.92 124.968 1692.92 0 1692.92C-8.02353e-10 1680.95 101.021 1608.75 112.366 1603.8C124 1603.8 196 1603.8 205.191 1603.8C217.392 1608.75 320 1684.26 320 1692.92Z" fill="#aad370"/>
<path d="M0 1692.92C124.968 1692.92 195.032 1692.92 320 1692.92C320 1702.41 216.845 1777.14 205.5 1782.09C192.867 1782.09 127.192 1782.04 112.5 1782.04C100.299 1777.09 0 1704.06 0 1692.92Z" fill="#bce462"/>
<path d="M320 2227.82C195.032 2227.82 124.968 2227.82 0 2227.82C-8.02353e-10 2215.85 101.021 2143.65 112.366 2138.7C124 2138.7 196 2138.7 205.191 2138.7C217.392 2143.65 320 2219.16 320 2227.82Z" fill="#aad370"/>
<path d="M0 2227.82C124.968 2227.82 195.032 2227.82 320 2227.82C320 2237.31 216.845 2312.04 205.5 2316.99C192.867 2316.99 127.192 2316.94 112.5 2316.94C100.299 2311.99 0 2238.96 0 2227.82Z" fill="#bce462"/>
<path d="M320 801.693C195.032 801.693 124.968 801.693 0 801.693C-8.02353e-10 789.728 101.021 717.524 112.366 712.573C124 712.573 196 712.573 205.191 712.573C217.392 717.524 320 793.028 320 801.693Z" fill="#aad370"/>
<path d="M0 801.693C124.968 801.693 195.032 801.693 320 801.693C320 811.182 216.845 885.909 205.5 890.86C192.867 890.86 127.192 890.812 112.5 890.812C100.299 885.861 0 812.833 0 801.693Z" fill="#bce462"/>
<path d="M320 267.406C195.032 267.406 124.968 267.406 0 267.406C-8.02353e-10 255.441 101.021 183.238 112.366 178.287C124 178.287 196 178.287 205.191 178.287C217.392 183.238 320 258.742 320 267.406Z" fill="#aad370"/>
<path d="M0 267.406C124.968 267.406 195.032 267.406 320 267.406C320 276.896 216.845 351.622 205.5 356.573C192.867 356.573 127.192 356.525 112.5 356.525C100.299 351.574 0 278.546 0 267.406Z" fill="#bce462"/>
<path d="M320 1336.42C195.032 1336.42 124.968 1336.42 0 1336.42C-8.02353e-10 1324.45 101.021 1252.25 112.366 1247.3C124 1247.3 196 1247.3 205.191 1247.3C217.392 1252.25 320 1327.76 320 1336.42Z" fill="#aad370"/>
<path d="M0 1336.42C124.968 1336.42 195.032 1336.42 320 1336.42C320 1345.91 216.845 1420.64 205.5 1425.59C192.867 1425.59 127.192 1425.54 112.5 1425.54C100.299 1420.59 0 1347.56 0 1336.42Z" fill="#bce462"/>
<path d="M320 979.693C195.032 979.693 124.968 979.693 0 979.693C-8.02353e-10 967.728 101.021 895.524 112.366 890.573C124 890.573 196 890.573 205.191 890.573C217.392 895.524 320 971.028 320 979.693Z" fill="#aad370"/>
<path d="M0 979.693C124.968 979.693 195.032 979.693 320 979.693C320 989.182 216.845 1063.91 205.5 1068.86C192.867 1068.86 127.192 1068.81 112.5 1068.81C100.299 1063.86 0 990.833 0 979.693Z" fill="#bce462"/>
<path d="M320 1871.22C195.032 1871.22 124.968 1871.22 0 1871.22C-8.02353e-10 1859.25 101.021 1787.05 112.366 1782.1C124 1782.1 196 1782.1 205.191 1782.1C217.392 1787.05 320 1862.56 320 1871.22Z" fill="#aad370"/>
<path d="M0 1871.22C124.968 1871.22 195.032 1871.22 320 1871.22C320 1880.71 216.845 1955.44 205.5 1960.39C192.867 1960.39 127.192 1960.34 112.5 1960.34C100.299 1955.39 0 1882.36 0 1871.22Z" fill="#bce462"/>
<path d="M320 1514.69C195.032 1514.69 124.968 1514.69 0 1514.69C-8.02353e-10 1502.73 101.021 1430.52 112.366 1425.57C124 1425.57 196 1425.57 205.191 1425.57C217.392 1430.52 320 1506.03 320 1514.69Z" fill="#aad370"/>
<path d="M0 1514.69C124.968 1514.69 195.032 1514.69 320 1514.69C320 1524.18 216.845 1598.91 205.5 1603.86C192.867 1603.86 127.192 1603.81 112.5 1603.81C100.299 1598.86 0 1525.83 0 1514.69Z" fill="#bce462"/>
<path d="M320 2049.52C195.032 2049.52 124.968 2049.52 0 2049.52C-8.02353e-10 2037.55 101.021 1965.35 112.366 1960.4C124 1960.4 196 1960.4 205.191 1960.4C217.392 1965.35 320 2040.85 320 2049.52Z" fill="#aad370"/>
<path d="M0 2049.52C124.968 2049.52 195.032 2049.52 320 2049.52C320 2059.01 216.845 2133.74 205.5 2138.69C192.867 2138.69 127.192 2138.64 112.5 2138.64C100.299 2133.69 0 2060.66 0 2049.52Z" fill="#bce462"/>
<path d="M320 445.406C195.032 445.406 124.968 445.406 0 445.406C-8.02353e-10 433.441 101.021 361.238 112.366 356.287C124 356.287 196 356.287 205.191 356.287C217.392 361.238 320 436.742 320 445.406Z" fill="#aad370"/>
<path d="M0 445.406C124.968 445.406 195.032 445.406 320 445.406C320 454.896 216.845 529.622 205.5 534.573C192.867 534.573 127.192 534.525 112.5 534.525C100.299 529.574 0 456.546 0 445.406Z" fill="#bce462"/>
<path d="M320 2406.07C195.032 2406.07 124.968 2406.07 0 2406.07C-8.02353e-10 2394.1 101.021 2321.9 112.366 2316.95C124 2316.95 196 2316.95 205.191 2316.95C217.392 2321.9 320 2397.41 320 2406.07Z" fill="#aad370"/>
<path d="M0 2406.07C124.968 2406.07 195.032 2406.07 320 2406.07C320 2415.56 216.845 2490.29 205.5 2495.24C192.867 2495.24 127.192 2495.19 112.5 2495.19C100.299 2490.24 0 2417.21 0 2406.07Z" fill="#bce462"/>
</svg>
